<?xml version="1.0" encoding="utf-8"?>
<!-- Generator: Adobe Illustrator 15.0.0, SVG Export Plug-In . SVG Version: 6.00 Build 0)  -->
<!DOCTYPE svg PUBLIC "-//W3C//DTD SVG 1.1//EN" "http://www.w3.org/Graphics/SVG/1.1/DTD/svg11.dtd">
<svg version="1.1" id="Layer_1" xmlns="http://www.w3.org/2000/svg" xmlns:xlink="http://www.w3.org/1999/xlink" x="0px" y="0px"
	 width="160px" height="66.667px" viewBox="0 0 160 66.667" enable-background="new 0 0 160 66.667" xml:space="preserve">
<g id="text">
	<path d="M51.729,17.993h0.799l2.736,6.965c0.16,0.428,0.303,0.959,0.303,0.959h0.035c0,0,0.143-0.533,0.303-0.959l2.736-6.965
		h0.781l-3.482,8.885h-0.711L51.729,17.993z"/>
	<path d="M66.087,21.458h0.586v-0.301c0-1.973-1.014-2.648-2.435-2.648c-1.545,0-2.541,0.854-2.541,0.854l-0.428-0.604
		c0,0,1.066-0.977,3.004-0.977c2.043,0,3.146,1.137,3.146,3.357v5.738h-0.746v-1.172c0-0.479,0.07-0.799,0.07-0.799h-0.035
		c0.019,0-0.799,2.184-3.108,2.184c-1.439,0-3.021-0.799-3.021-2.575C60.578,21.495,64.505,21.458,66.087,21.458z M63.635,26.397
		c1.938,0,3.04-2.008,3.04-3.766v-0.479h-0.569c-1.51,0-4.744,0-4.744,2.31C61.359,25.403,62.124,26.397,63.635,26.397z"/>
	<path d="M70.423,17.993h0.747v1.564c0,0.408-0.07,0.729-0.07,0.729h0.035c0.303-0.836,1.547-2.506,3.768-2.506
		c2.31,0,2.931,1.367,2.931,3.465v5.633h-0.745V21.51c0-1.545-0.195-3.002-2.186-3.002c-1.67,0-3.146,1.172-3.59,2.824
		c-0.105,0.373-0.142,0.78-0.142,1.209v4.334h-0.747L70.423,17.993L70.423,17.993z"/>
	<path d="M86.77,1h14.158v1.479h-12.57v10.61h10.316v1.479H88.357V25.4h13.273v1.479H86.77V1L86.77,1z"/>
	<path d="M106.953,1h1.553v21.665c0,2.586,1.33,2.883,2.18,2.883c0.297,0,0.556-0.036,0.556-0.036v1.44c0,0-0.332,0.074-0.666,0.074
		c-1.072,0-3.623-0.406-3.623-3.881L106.953,1L106.953,1z"/>
	<path d="M115.455,1h1.553v21.665c0,2.586,1.33,2.883,2.182,2.883c0.295,0,0.556-0.036,0.556-0.036v1.44
		c0,0-0.334,0.074-0.667,0.074c-1.071,0-3.622-0.406-3.622-3.881L115.455,1L115.455,1z"/>
	<path d="M131.831,7.95c5.028,0,7.542,3.956,7.542,8.428c0,0.408-0.073,1-0.073,1h-14.825c0,5.359,3.625,8.429,7.914,8.429
		c3.547,0,5.729-2.329,5.729-2.329l0.85,1.293c0,0-2.586,2.551-6.577,2.551c-5.216,0-9.541-3.771-9.541-9.648
		C122.848,11.425,127.1,7.95,131.831,7.95z M137.748,15.935c-0.188-4.51-2.885-6.543-5.953-6.543c-3.402,0-6.543,2.219-7.21,6.543
		H137.748z"/>
	<path d="M144.585,8.394h1.554v3.253c0,0.851-0.147,1.516-0.147,1.516h0.073c0.629-1.738,3.215-5.212,7.836-5.212
		c4.806,0,6.101,2.846,6.101,7.209v11.719h-1.553V15.713c0-3.216-0.406-6.248-4.548-6.248c-3.475,0-6.541,2.44-7.467,5.877
		c-0.221,0.776-0.295,1.627-0.295,2.514v9.021h-1.554V8.394L144.585,8.394z"/>
	<path d="M53.128,54.167c0,0,2.625,2.883,6.913,2.883c3.217,0,5.768-1.998,5.768-5.102c0-7.357-13.234-5.324-13.234-13.422
		c0-3.438,3.068-6.689,7.764-6.689c4.215,0,6.58,2.402,6.58,2.402l-0.887,1.367c0,0-2.219-2.218-5.656-2.218
		c-3.846,0-6.137,2.587-6.137,5.101c0,6.84,13.234,4.732,13.234,13.383c0,3.736-2.885,6.73-7.504,6.73
		c-5.103,0-7.912-3.217-7.912-3.217L53.128,54.167z"/>
	<path d="M72.832,32.279h1.555v10.647c0,0.85-0.148,1.516-0.148,1.516h0.074c0.627-1.736,3.215-5.213,7.834-5.213
		c4.81,0,6.103,2.846,6.103,7.211v11.717h-1.554V46.995c0-3.219-0.407-6.25-4.549-6.25c-3.474,0-6.541,2.441-7.465,5.879
		c-0.223,0.775-0.295,1.625-0.295,2.515v9.019h-1.555V32.279L72.832,32.279z"/>
	<path d="M101.109,39.229c5.029,0,7.543,3.957,7.543,8.43c0,0.406-0.073,1-0.073,1H93.755c0,5.359,3.622,8.428,7.911,8.428
		c3.549,0,5.73-2.33,5.73-2.33l0.849,1.293c0,0-2.587,2.554-6.579,2.554c-5.211,0-9.538-3.771-9.538-9.647
		C92.128,42.706,96.379,39.229,101.109,39.229z M107.025,47.213c-0.185-4.508-2.883-6.541-5.953-6.541
		c-3.398,0-6.543,2.218-7.209,6.541H107.025z"/>
	<path d="M113.863,39.674h1.554v3.513c0,0.851-0.147,1.517-0.147,1.517h0.072c0.926-2.85,2.995-5.177,5.916-5.177
		c0.555,0,1.072,0.109,1.072,0.109v1.554c0,0-0.445-0.074-0.852-0.074c-2.883,0-4.694,2.44-5.508,5.178
		c-0.406,1.295-0.556,2.662-0.556,3.883v7.982h-1.554L113.863,39.674L113.863,39.674z"/>
	<path d="M124.104,63.558c0,0,1.035,0.885,2.293,0.885c1.773,0,2.883-1.588,3.623-3.327l1.33-3.066l-7.652-18.375h1.664
		l6.102,14.752c0.367,0.887,0.664,1.736,0.664,1.736h0.072c0,0,0.26-0.851,0.631-1.736l6.098-14.752h1.664l-9.501,22.811
		c-0.813,1.924-2.366,3.438-4.694,3.438c-1.774,0-2.994-1.034-2.994-1.034L124.104,63.558z"/>
	<path d="M144.436,39.674h1.553v3.252c0,0.851-0.146,1.517-0.146,1.517h0.074c0.626-1.735,3.216-5.213,7.837-5.213
		c4.806,0,6.099,2.847,6.099,7.211v11.718H158.3V46.995c0-3.219-0.407-6.25-4.547-6.25c-3.478,0-6.543,2.441-7.467,5.879
		c-0.224,0.775-0.297,1.625-0.297,2.515v9.019h-1.554V39.674L144.436,39.674z"/>
</g>
<g id="Layer_3">
	<g>
		<rect x="12.9" y="56.618" fill="#F05324" width="15.877" height="2.133"/>
	</g>
	<g>
		<rect x="12.89" y="43.94" fill="#F05324" width="2.132" height="14.453"/>
	</g>
	<g>
		<rect x="26.653" y="43.94" fill="#F05324" width="2.131" height="14.453"/>
	</g>
	<g>
		<rect x="12.9" y="17.458" fill="#F05324" width="15.877" height="2.133"/>
	</g>
	<g>
		<rect x="26.655" y="17.813" fill="#F05324" width="2.133" height="14.456"/>
	</g>
	<g>
		<rect x="12.892" y="17.813" fill="#F05324" width="2.133" height="14.456"/>
	</g>
	<g>
		<rect x="0.548" y="30.154" fill="#F05324" width="13.033" height="2.132"/>
	</g>
	<g>
		<rect x="0.548" y="43.917" fill="#F05324" width="13.033" height="2.133"/>
	</g>
	<g>
		<rect x="39.352" y="30.167" fill="#F05324" width="2.132" height="15.875"/>
	</g>
	<g>
		<rect y="30.167" fill="#F05324" width="2.133" height="15.875"/>
	</g>
	<g>
		<rect x="28.096" y="43.92" fill="#F05324" width="13.033" height="2.136"/>
	</g>
	<g>
		<rect x="26.653" y="30.154" fill="#F05324" width="14.832" height="2.132"/>
	</g>
</g>
</svg>
