<?xml version="1.0" encoding="utf-8"?>
<!-- Generator: Adobe Illustrator 15.0.0, SVG Export Plug-In . SVG Version: 6.00 Build 0)  -->
<!DOCTYPE svg PUBLIC "-//W3C//DTD SVG 1.1//EN" "http://www.w3.org/Graphics/SVG/1.1/DTD/svg11.dtd">
<svg version="1.1" xmlns="http://www.w3.org/2000/svg" xmlns:xlink="http://www.w3.org/1999/xlink" x="0px" y="0px" width="240px"
	 height="100px" viewBox="0 0 240 100" enable-background="new 0 0 240 100" xml:space="preserve">
<g id="text">
	<path d="M77.591,27.107h1.2l4.104,10.448c0.239,0.64,0.453,1.438,0.453,1.438h0.054c0,0,0.213-0.799,0.453-1.438l4.104-10.448
		h1.174l-5.225,13.327h-1.066L77.591,27.107z"/>
	<path d="M99.13,32.305h0.88v-0.453c0-2.958-1.521-3.971-3.653-3.971c-2.319,0-3.811,1.279-3.811,1.279l-0.64-0.906
		c0,0,1.599-1.465,4.505-1.465c3.064,0,4.717,1.705,4.717,5.037v8.609h-1.118v-1.76c0-0.719,0.105-1.199,0.105-1.199h-0.053
		c0.026,0-1.199,3.278-4.664,3.278c-2.159,0-4.531-1.199-4.531-3.865C90.867,32.358,96.757,32.305,99.13,32.305z M95.452,39.714
		c2.905,0,4.559-3.012,4.559-5.65v-0.719h-0.854c-2.266,0-7.117,0-7.117,3.464C92.039,38.222,93.186,39.714,95.452,39.714z"/>
	<path d="M105.635,27.107h1.12v2.346c0,0.612-0.106,1.092-0.106,1.092h0.053c0.454-1.252,2.319-3.757,5.651-3.757
		c3.464,0,4.397,2.05,4.397,5.197v8.448h-1.118v-8.049c0-2.319-0.294-4.504-3.279-4.504c-2.505,0-4.718,1.759-5.384,4.237
		c-0.159,0.56-0.213,1.172-0.213,1.813v6.503h-1.12V27.107z"/>
	<path d="M130.152,1.617h21.239v2.218h-18.854V19.75h15.473v2.218h-15.473v16.248h19.909v2.218h-22.294V1.617z"/>
	<path d="M160.429,1.617h2.329v32.496c0,3.881,1.996,4.325,3.271,4.325c0.444,0,0.832-0.055,0.832-0.055v2.163
		c0,0-0.498,0.111-0.999,0.111c-1.609,0-5.434-0.61-5.434-5.822V1.617z"/>
	<path d="M173.183,1.617h2.328v32.496c0,3.881,1.997,4.325,3.274,4.325c0.442,0,0.83-0.055,0.83-0.055v2.163
		c0,0-0.5,0.111-0.999,0.111c-1.608,0-5.434-0.61-5.434-5.822V1.617z"/>
	<path d="M197.747,12.042c7.542,0,11.312,5.934,11.312,12.643c0,0.611-0.109,1.498-0.109,1.498h-22.237
		c0,8.041,5.435,12.644,11.869,12.644c5.322,0,8.594-3.494,8.594-3.494l1.275,1.941c0,0-3.881,3.826-9.869,3.826
		c-7.82,0-14.31-5.656-14.31-14.473C184.271,17.254,190.649,12.042,197.747,12.042z M206.621,24.02
		c-0.278-6.766-4.326-9.815-8.929-9.815c-5.103,0-9.814,3.328-10.814,9.815H206.621z"/>
	<path d="M216.878,12.707h2.328v4.88c0,1.276-0.22,2.274-0.22,2.274h0.109c0.943-2.606,4.823-7.819,11.756-7.819
		c7.208,0,9.149,4.269,9.149,10.814v17.578h-2.329V23.687c0-4.824-0.608-9.372-6.82-9.372c-5.212,0-9.813,3.66-11.201,8.816
		c-0.332,1.165-0.444,2.441-0.444,3.772v13.53h-2.328V12.707z"/>
	<path d="M79.692,81.365c0,0,3.938,4.324,10.369,4.324c4.825,0,8.652-2.994,8.652-7.652c0-11.033-19.853-7.984-19.853-20.131
		c0-5.155,4.603-10.035,11.645-10.035c6.322,0,9.871,3.606,9.871,3.606l-1.331,2.05c0,0-3.328-3.327-8.484-3.327
		c-5.768,0-9.206,3.881-9.206,7.651c0,10.258,19.852,7.1,19.852,20.074c0,5.604-4.326,10.094-11.256,10.094
		c-7.653,0-11.867-4.826-11.867-4.826L79.692,81.365z"/>
	<path d="M109.248,48.536h2.33v15.972c0,1.273-0.222,2.273-0.222,2.273h0.111c0.942-2.605,4.824-7.818,11.753-7.818
		c7.211,0,9.152,4.268,9.152,10.813v17.576h-2.33V70.607c0-4.826-0.61-9.373-6.822-9.373c-5.211,0-9.813,3.662-11.199,8.818
		c-0.333,1.164-0.443,2.439-0.443,3.771v13.527h-2.33V48.536z"/>
	<path d="M151.665,58.963c7.543,0,11.314,5.934,11.314,12.643c0,0.611-0.111,1.498-0.111,1.498h-22.236
		c0,8.041,5.435,12.643,11.867,12.643c5.323,0,8.596-3.494,8.596-3.494l1.273,1.941c0,0-3.882,3.826-9.869,3.826
		c-7.818,0-14.307-5.656-14.307-14.473C138.192,64.176,144.569,58.963,151.665,58.963z M160.539,70.939
		c-0.277-6.764-4.324-9.814-8.929-9.814c-5.1,0-9.814,3.326-10.813,9.814H160.539z"/>
	<path d="M170.796,59.628h2.33v5.269c0,1.275-0.222,2.273-0.222,2.273h0.11c1.387-4.271,4.491-7.764,8.872-7.764
		c0.832,0,1.608,0.165,1.608,0.165V61.9c0,0-0.666-0.111-1.275-0.111c-4.324,0-7.042,3.66-8.263,7.766
		c-0.611,1.941-0.831,3.992-0.831,5.822v11.975h-2.33V59.628z"/>
	<path d="M186.157,95.451c0,0,1.553,1.33,3.437,1.33c2.663,0,4.325-2.385,5.436-4.992l1.996-4.602l-11.479-27.56h2.496l9.151,22.126
		c0.552,1.33,0.996,2.607,0.996,2.607h0.109c0,0,0.391-1.277,0.946-2.607l9.148-22.126h2.495l-14.252,34.214
		c-1.219,2.885-3.549,5.158-7.043,5.158c-2.662,0-4.49-1.553-4.49-1.553L186.157,95.451z"/>
	<path d="M216.652,59.628h2.331v4.88c0,1.273-0.222,2.273-0.222,2.273h0.111c0.941-2.605,4.824-7.818,11.755-7.818
		c7.209,0,9.149,4.268,9.149,10.813v17.576h-2.328V70.607c0-4.826-0.611-9.373-6.821-9.373c-5.213,0-9.815,3.662-11.199,8.818
		c-0.334,1.164-0.445,2.439-0.445,3.771v13.527h-2.331V59.628z"/>
</g>
<g id="Layer_3">
	<g>
		<rect x="19.35" y="85.043" fill="#F05324" width="23.816" height="3.199"/>
	</g>
	<g>
		<rect x="19.334" y="66.027" fill="#F05324" width="3.198" height="21.682"/>
	</g>
	<g>
		<rect x="39.979" y="66.027" fill="#F05324" width="3.198" height="21.682"/>
	</g>
	<g>
		<rect x="19.35" y="26.304" fill="#F05324" width="23.816" height="3.2"/>
	</g>
	<g>
		<rect x="39.982" y="26.837" fill="#F05324" width="3.199" height="21.684"/>
	</g>
	<g>
		<rect x="19.338" y="26.837" fill="#F05324" width="3.199" height="21.684"/>
	</g>
	<g>
		<rect x="0.822" y="45.348" fill="#F05324" width="19.55" height="3.199"/>
	</g>
	<g>
		<rect x="0.822" y="65.994" fill="#F05324" width="19.55" height="3.199"/>
	</g>
	<g>
		<rect x="59.028" y="45.366" fill="#F05324" width="3.199" height="23.816"/>
	</g>
	<g>
		<rect x="0" y="45.366" fill="#F05324" width="3.199" height="23.816"/>
	</g>
	<g>
		<rect x="42.144" y="65.998" fill="#F05324" width="19.55" height="3.201"/>
	</g>
	<g>
		<rect x="39.979" y="45.348" fill="#F05324" width="22.247" height="3.199"/>
	</g>
</g>
</svg>
