<?xml version="1.0" encoding="utf-8"?>
<!-- Generator: Adobe Illustrator 15.0.0, SVG Export Plug-In . SVG Version: 6.00 Build 0)  -->
<!DOCTYPE svg PUBLIC "-//W3C//DTD SVG 1.1//EN" "http://www.w3.org/Graphics/SVG/1.1/DTD/svg11.dtd">
<svg version="1.1" id="Layer_1" xmlns="http://www.w3.org/2000/svg" xmlns:xlink="http://www.w3.org/1999/xlink" x="0px" y="0px"
	 width="120px" height="96px" viewBox="0 0 120 96" enable-background="new 0 0 120 96" xml:space="preserve">
<path fill-rule="evenodd" clip-rule="evenodd" fill="#231F20" d="M60.149,13.413h8.047l2.47-10.891
	c-0.392-0.13-2.826-0.55-2.826-0.55l-0.843,4.236c-0.427-0.052-1.057-0.095-1.521-0.131L64.92,9.771l-1.94-0.13l0.317-3.776
	c-0.849-0.032-0.828-0.106-1.423-0.112l0.21-4.565h-3.877l0.215,4.565c-0.597,0.006-0.577,0.08-1.429,0.112l0.323,3.776l-1.947,0.13
	l-0.551-3.695c-0.468,0.036-1.094,0.079-1.526,0.131L52.45,1.972c0,0-2.43,0.42-2.82,0.55l2.464,10.891H60.149L60.149,13.413z"/>
<path fill-rule="evenodd" clip-rule="evenodd" fill="#231F20" d="M64.319,82.093h-8.843c-0.889,0-1.607,0.722-1.607,1.61
	c0,0.884,0.718,1.606,1.607,1.606h8.843c0.887,0,1.608-0.723,1.608-1.606C65.928,82.814,65.206,82.093,64.319,82.093L64.319,82.093z
	"/>
<polygon fill-rule="evenodd" clip-rule="evenodd" fill="#231F20" points="52.323,85.695 67.417,85.695 67.417,91.993 52.323,91.993 
	52.323,85.695 "/>
<path fill-rule="evenodd" clip-rule="evenodd" fill="#FFFFFF" d="M65.788,87.189H53.833v3.333h12.126v-3.333H65.788L65.788,87.189z
	 M65.616,87.535c0,0.284,0,2.359,0,2.64c-0.327,0-11.118,0-11.441,0c0-0.28,0-2.355,0-2.64
	C54.498,87.535,65.289,87.535,65.616,87.535L65.616,87.535z"/>
<path fill-rule="evenodd" clip-rule="evenodd" fill="#231F20" d="M59.995,53.56c-0.219,0.214-2.194,2.191-2.194,2.191l-2.28-2.283
	v4.386c0.5,0.504,2.097,2.102,2.28,2.287c0.215-0.217,2.194-2.193,2.194-2.193s2.024,2.024,2.234,2.24
	c0.175-0.173,1.639-1.635,2.238-2.235v-4.388L62.229,55.8C62.229,55.8,60.208,53.777,59.995,53.56L59.995,53.56z"/>
<path fill-rule="evenodd" clip-rule="evenodd" fill="#231F20" d="M59.995,58.43c-0.219,0.214-2.194,2.189-2.194,2.189l-2.28-2.284
	v4.388c0.5,0.507,2.097,2.1,2.28,2.285c0.215-0.215,2.194-2.19,2.194-2.19s2.024,2.021,2.234,2.242
	c0.175-0.176,1.639-1.637,2.238-2.236v-4.389l-2.238,2.234C62.229,60.669,60.208,58.647,59.995,58.43L59.995,58.43z"/>
<path fill-rule="evenodd" clip-rule="evenodd" fill="#231F20" d="M59.995,48.692c-0.219,0.213-2.194,2.186-2.194,2.186l-2.28-2.282
	v4.387c0.5,0.503,2.097,2.1,2.28,2.286c0.215-0.216,2.194-2.19,2.194-2.19s2.024,2.021,2.234,2.238
	c0.175-0.174,1.639-1.633,2.238-2.233v-4.388l-2.238,2.233C62.229,50.928,60.208,48.906,59.995,48.692L59.995,48.692z"/>
<path fill-rule="evenodd" clip-rule="evenodd" fill="#231F20" d="M59.995,63.3c-0.219,0.218-2.194,2.189-2.194,2.189l-2.28-2.28
	v4.389c0.5,0.5,2.097,2.097,2.28,2.28c0.215-0.214,2.194-2.191,2.194-2.191s2.024,2.021,2.234,2.241
	c0.175-0.174,1.639-1.632,2.238-2.236v-4.389l-2.238,2.237C62.229,65.54,60.208,63.518,59.995,63.3L59.995,63.3z"/>
<path fill-rule="evenodd" clip-rule="evenodd" fill="#231F20" d="M59.995,68.171c-0.219,0.217-2.194,2.187-2.194,2.187l-2.28-2.278
	v4.387c0.5,0.501,2.097,2.101,2.28,2.281c0.215-0.208,2.194-2.189,2.194-2.189s2.024,2.022,2.234,2.24
	c0.175-0.175,1.639-1.634,2.238-2.235v-4.39l-2.238,2.238C62.229,70.411,60.208,68.388,59.995,68.171L59.995,68.171z"/>
<path fill-rule="evenodd" clip-rule="evenodd" fill="#231F20" d="M59.995,43.82c-0.219,0.216-2.194,2.188-2.194,2.188l-2.28-2.284
	v4.39c0.5,0.501,2.097,2.099,2.28,2.284c0.215-0.217,2.194-2.192,2.194-2.192s2.024,2.024,2.234,2.238
	c0.175-0.174,1.639-1.634,2.238-2.233v-4.389l-2.238,2.236C62.229,46.059,60.208,44.037,59.995,43.82L59.995,43.82z"/>
<path fill-rule="evenodd" clip-rule="evenodd" fill="#231F20" d="M59.995,73.044c-0.219,0.212-2.194,2.186-2.194,2.186l-2.28-2.284
	v4.391c0.5,0.503,2.097,2.097,2.28,2.286c0.215-0.214,2.194-2.192,2.194-2.192s2.024,2.022,2.234,2.239
	c0.175-0.174,1.639-1.634,2.238-2.234v-4.388l-2.238,2.231C62.229,75.278,60.208,73.258,59.995,73.044L59.995,73.044z"/>
<path fill-rule="evenodd" clip-rule="evenodd" fill="#231F20" d="M59.995,19.466c-0.219,0.216-2.194,2.19-2.194,2.19l-2.28-2.282
	v4.388c0.5,0.501,2.097,2.1,2.28,2.282c0.215-0.214,2.194-2.192,2.194-2.192s2.024,2.026,2.234,2.244
	c0.175-0.173,1.639-1.638,2.238-2.237v-4.389l-2.238,2.236C62.229,21.706,60.208,19.682,59.995,19.466L59.995,19.466z"/>
<path fill-rule="evenodd" clip-rule="evenodd" fill="#231F20" d="M57.801,21.174c0.215-0.216,2.194-2.191,2.194-2.191
	s2.024,2.023,2.234,2.239c0.175-0.174,1.639-1.633,2.238-2.233v-1.653h-8.946v1.555C56.021,19.392,57.618,20.99,57.801,21.174
	L57.801,21.174z"/>
<path fill-rule="evenodd" clip-rule="evenodd" fill="#231F20" d="M59.995,38.95c-0.219,0.212-2.194,2.188-2.194,2.188l-2.28-2.284
	v4.389c0.5,0.503,2.097,2.097,2.28,2.284c0.215-0.215,2.194-2.191,2.194-2.191s2.024,2.022,2.234,2.241
	c0.175-0.174,1.639-1.635,2.238-2.236v-4.389l-2.238,2.235C62.229,41.188,60.208,39.162,59.995,38.95L59.995,38.95z"/>
<path fill-rule="evenodd" clip-rule="evenodd" fill="#231F20" d="M62.229,80.154c0,0-2.021-2.026-2.234-2.243
	c-0.219,0.217-2.194,2.192-2.194,2.192l-2.28-2.286v3.906h8.946v-3.803L62.229,80.154L62.229,80.154z"/>
<path fill-rule="evenodd" clip-rule="evenodd" fill="#231F20" d="M59.995,34.078c-0.219,0.215-2.194,2.191-2.194,2.191l-2.28-2.282
	v4.388c0.5,0.501,2.097,2.096,2.28,2.282c0.215-0.216,2.194-2.188,2.194-2.188s2.024,2.021,2.234,2.238
	c0.175-0.175,1.639-1.636,2.238-2.234v-4.39l-2.238,2.233C62.229,36.315,60.208,34.293,59.995,34.078L59.995,34.078z"/>
<path fill-rule="evenodd" clip-rule="evenodd" fill="#231F20" d="M59.995,24.337c-0.219,0.215-2.194,2.191-2.194,2.191l-2.28-2.282
	v4.386c0.5,0.501,2.097,2.099,2.28,2.28c0.215-0.214,2.194-2.188,2.194-2.188s2.024,2.024,2.234,2.238
	c0.175-0.174,1.639-1.631,2.238-2.232v-4.39l-2.238,2.236C62.229,26.577,60.208,24.552,59.995,24.337L59.995,24.337z"/>
<path fill-rule="evenodd" clip-rule="evenodd" fill="#231F20" d="M59.995,29.207c-0.219,0.217-2.194,2.192-2.194,2.192l-2.28-2.283
	v4.387c0.5,0.502,2.097,2.098,2.28,2.282c0.215-0.214,2.194-2.188,2.194-2.188s2.024,2.023,2.234,2.239
	c0.175-0.173,1.639-1.634,2.238-2.235v-4.389l-2.238,2.236C62.229,31.447,60.208,29.424,59.995,29.207L59.995,29.207z"/>
<path fill-rule="evenodd" clip-rule="evenodd" fill="#FFFFFF" d="M69.95,6.923l0.063-0.335c-3.422-0.654-6.648-0.973-9.865-0.973
	c-4.201,0-7.227,0.467-9.869,0.973l0.064,0.335c0.393-0.077,0.795-0.148,1.208-0.221l0.65,3.311c-0.486,0.07-0.896,0.14-1.212,0.199
	l0.069,0.333c0.707-0.138,1.906-0.315,3.361-0.465l0.523,3.799l0.337-0.046l-0.521-3.787c0.996-0.097,2.099-0.182,3.238-0.228
	l0.217,4.11l0.34-0.018l-0.216-4.107c0.598-0.024,1.203-0.036,1.811-0.036c0.602,0,1.208,0.011,1.808,0.036l-0.218,4.107
	l0.338,0.018l0.223-4.11c1.134,0.046,2.238,0.131,3.234,0.228l-0.521,3.787l0.341,0.046l0.519-3.799
	c1.457,0.149,2.655,0.327,3.36,0.465l0.068-0.333c-0.313-0.06-0.723-0.129-1.209-0.202l0.649-3.303
	C69.144,6.775,69.543,6.845,69.95,6.923L69.95,6.923z M51.887,6.645c2.228-0.377,4.791-0.681,8.09-0.689V9.43
	c-2.774,0.011-5.565,0.274-7.438,0.533L51.887,6.645L51.887,6.645z M67.751,9.962C65.887,9.704,63.09,9.44,60.317,9.43V5.956
	c2.651,0.009,5.311,0.239,8.086,0.692L67.751,9.962L67.751,9.962z"/>
<path fill-rule="evenodd" clip-rule="evenodd" fill="#231F20" d="M64.319,13.753h-8.843c-0.889,0-1.607,0.72-1.607,1.61
	c0,0.889,0.718,1.609,1.607,1.609h8.843c0.887,0,1.608-0.72,1.608-1.609C65.928,14.473,65.206,13.753,64.319,13.753L64.319,13.753z"
	/>
<path fill-rule="evenodd" clip-rule="evenodd" fill="#FFFFFF" d="M54.98,30.053c0.798,0.328,1.307,0.8,1.164,2.137
	c0,0-0.505-0.626-1.397-0.397c-0.461,0.118,0.136-0.125,0.136-0.125L54.98,30.053L54.98,30.053z"/>
<path fill-rule="evenodd" clip-rule="evenodd" fill="#FFFFFF" d="M55.126,36.088c1.657,0.414,1.91,0.918,1.91,0.918
	s-0.323,0.497-1.861,0.886L55.126,36.088L55.126,36.088z"/>
<path fill-rule="evenodd" clip-rule="evenodd" fill="#FFFFFF" d="M54.858,42.168c0.469,0.131,0.837-0.025,1.108-0.294
	c0,0,0.664,1.432-1.099,1.906L54.858,42.168L54.858,42.168z"/>
<path fill-rule="evenodd" clip-rule="evenodd" fill="#FFFFFF" d="M54.841,59.999c0.685,0.176,1.455,0.574,1.55,1.24
	c0,0-0.883-0.071-1.374,0.696L54.841,59.999L54.841,59.999z"/>
<path fill-rule="evenodd" clip-rule="evenodd" fill="#FFFFFF" d="M54.952,62.162c0.968-0.063,1.449,0.547,1.563,1.2
	c0,0-0.781-0.052-1.316,0.777L54.952,62.162L54.952,62.162z"/>
<path fill-rule="evenodd" clip-rule="evenodd" fill="#FFFFFF" d="M54.869,64.988c0.82,0.127,1.502,0.501,1.617,1.144
	c0,0-0.782,0.023-1.202,0.937L54.869,64.988L54.869,64.988z"/>
<polygon fill-rule="evenodd" clip-rule="evenodd" fill="#231F20" points="36.458,23.878 36.458,24.892 39.097,24.894 39.097,23.832 
	36.458,23.83 36.458,23.878 "/>
<polygon fill-rule="evenodd" clip-rule="evenodd" fill="#231F20" points="39.046,26.003 36.123,26.004 36.123,27.06 39.097,27.063 
	39.097,26.003 39.046,26.003 "/>
<polygon fill-rule="evenodd" clip-rule="evenodd" fill="#231F20" points="39.046,30.345 24.809,30.347 24.809,31.406 39.097,31.406 
	39.097,30.345 39.046,30.345 "/>
<polygon fill-rule="evenodd" clip-rule="evenodd" fill="#231F20" points="35.894,28.191 35.242,29.232 39.097,29.234 39.097,28.174 
	35.907,28.172 35.894,28.191 "/>
<polygon fill-rule="evenodd" clip-rule="evenodd" fill="#231F20" points="27.532,23.83 24.811,23.832 24.811,24.894 27.581,24.892 
	27.581,23.83 27.532,23.83 "/>
<polygon fill-rule="evenodd" clip-rule="evenodd" fill="#231F20" points="24.811,26.052 24.811,27.063 27.923,27.06 27.923,26.004 
	24.811,26.003 24.811,26.052 "/>
<path fill-rule="evenodd" clip-rule="evenodd" fill="#231F20" d="M24.807,32.574v1.022l1.993,0l0.019-0.013
	c0.561-0.563,1.32-0.96,1.327-0.964l0.205-0.092l-3.542-0.002V32.574L24.807,32.574z"/>
<path fill-rule="evenodd" clip-rule="evenodd" fill="#231F20" d="M24.874,36.757v-1.998l0.978,0
	C25.396,35.358,25.086,35.974,24.874,36.757L24.874,36.757z"/>
<polygon fill-rule="evenodd" clip-rule="evenodd" fill="#231F20" points="28.112,28.167 24.811,28.17 24.811,29.234 28.807,29.227 
	28.138,28.167 28.112,28.167 "/>
<polygon fill-rule="evenodd" clip-rule="evenodd" fill="#231F20" points="33.343,28.707 33.343,26.36 33.938,25.864 34.301,26.261 
	34.039,28.541 33.343,28.707 "/>
<path fill-rule="evenodd" clip-rule="evenodd" fill="#231F20" d="M32.024,29.785c-0.558-0.376-0.864-0.947-0.864-1.64
	c0-0.695,0-2.142,0-2.142h1.728c0,0,0,1.446,0,2.142C32.888,28.838,32.579,29.409,32.024,29.785L32.024,29.785z"/>
<polygon fill-rule="evenodd" clip-rule="evenodd" fill="#231F20" points="30.719,28.707 30.719,26.36 30.122,25.864 29.759,26.261 
	30.026,28.541 30.719,28.707 "/>
<path fill-rule="evenodd" clip-rule="evenodd" fill="#231F20" d="M55.074,42.592c-0.609-0.106-0.747-0.83-0.473-1.3
	c0,0,0.188-0.269,0.247-0.375c0.25-0.427,0.199-0.813,0.064-1.071c0,0-0.416,0.319-1.089,0.243c0,0,0.124,0.076,0.194,0.33
	c0.094,0.319-0.21,0.568-0.596,0.492c-0.354-0.07-0.747-0.26-1.17-0.814c-0.158-0.207-0.465-0.469-0.753-0.632
	c-0.784-0.422-1.829-0.303-3.389-0.303c-0.759,0-1.863-0.149-2.44-0.312c-0.617-0.169-1.229-0.507-1.184-0.929
	c0.05-0.422,0.784-0.683,1.576-0.877c0.744-0.184,2.23-0.403,3.249-0.601c1.682-0.332,2.097-1.374,2.423-2.351
	c0.325-0.972,1.187-1.209,1.619-1.224c0.35-0.012,0.782,0.126,0.717,0.453c-0.064,0.328-0.246,0.41-0.246,0.41
	c0.54-0.147,1.089,0.243,1.089,0.243c0.135-0.262,0.235-0.672-0.064-1.171c-0.17-0.288-0.25-0.402-0.285-0.432
	c-0.214-0.409-0.004-1.071,0.565-1.092c0.482-0.021,0.672,0.26,0.672,0.26c0-0.455-0.411-0.972-1.08-1.024
	c-1.727-0.145-1.823,1.637-1.823,1.637c-0.646,0.23-1.146,0.611-1.41,1.03c-0.384,0.605-0.513,1.266-0.781,1.681
	c-0.419,0.647-1.266,0.93-2.694,0.93c-1.432,0-3.567-0.396-4.934-0.788c-1.367-0.388-2.501-0.046-2.923,0.724
	c-0.391,0.717-0.324,2.079,0.261,2.992c0.585,0.911,1.82,1.559,4.679,1.727c0.979,0.061,2.136-0.053,3.417-0.331
	c1.495-0.324,2.079-0.282,2.52-0.129c0.423,0.147,1.099,0.494,1.642,1.642c0,0,0.498,1.695,2.058,1.713
	c0.519,0.006,0.978-0.243,1.055-0.886C55.788,42.453,55.545,42.672,55.074,42.592L55.074,42.592z"/>
<path fill-rule="evenodd" clip-rule="evenodd" fill="#231F20" d="M53.52,36.94c0-0.558,0.703-0.917,1.525-0.917
	c0.084-0.169,0.13-0.351,0.096-0.593c-0.063-0.485-0.585-1.075-1.559-1.075c-1.07,0-2.195,0.736-2.195,2.589
	s1.125,2.579,2.195,2.579c0.974,0,1.512-0.587,1.559-1.071c0.028-0.278-0.012-0.432-0.108-0.554
	C54.177,37.975,53.52,37.625,53.52,36.94L53.52,36.94z"/>
<path fill-rule="evenodd" clip-rule="evenodd" fill="#231F20" d="M29.721,37.618c0-0.733,0.603-0.837,1.108-0.982
	c0.888-0.259,1.527-0.703,2.08-1.251c0.539-0.539,1.218-1.072,2.092-1.072c0.883,0,1.491,0.097,2.466,0.51
	c0.945,0.401,1.853,0.84,1.744,1.78c-0.104,0.854,0.12,1.559,0.268,1.901c0.146,0.341,0.287,1.026-0.48,1.35
	c-0.62,0.261-1.33,0.39-2.627,0.31c-1.842-0.122-3.823-0.72-5.316-1.365C30.371,38.5,29.721,38.152,29.721,37.618L29.721,37.618z"/>
<path fill-rule="evenodd" clip-rule="evenodd" fill="#231F20" d="M33.884,40.749c0.265,0.131,0.351,0.371,0.255,0.712
	c-0.096,0.339-0.389,1.446-2.256,3.138c-0.674,0.61-1.805,1.36-2.73,1.414c-0.959,0.057-1.267-0.438-1.267-0.974
	c0,0,0-0.579,0-0.919c0-0.342,0.244-0.791,0.634-0.88c0.869-0.194,2.457-0.926,2.992-2.248c0.159-0.406,0.453-0.731,1.037-0.635
	C33.134,40.455,33.492,40.555,33.884,40.749L33.884,40.749z"/>
<path fill-rule="evenodd" clip-rule="evenodd" fill="#231F20" d="M35.929,33.609c-2.188-0.242-2.54,0.285-3.845,1.386
	c-1.027,0.867-1.935,1.043-2.054,0.831c-0.243-0.44,0.586-1.024,0.927-1.367c0.342-0.341,0.048-0.675-0.49-0.383
	c-0.535,0.292-1.708,1.442-1.908,2.46c0,0.006-0.003,0.011-0.005,0.019c-0.003,0.014-0.007,0.027-0.01,0.038
	c-0.053,0.33-0.162,1.394,0.702,2.138c0.428,0.368,0.782,0.537,1.322,0.752c0.429,0.167,0.631,0.828,0.145,1.461
	c-0.487,0.635-1.391,1.324-2.491,1.615c-0.661,0.177-1.016,0.643-1.016,1.34c0,1.692,0,6.65,0,7.172
	c0,0.517-0.248,1.158-0.995,1.158c-0.748,0-1.263,0.17-1.263-0.478c0-0.654,0-10.136,0-11.305c0-4.875,2.755-6.845,3.691-7.345
	c1.82-0.978,4.752-1.464,7.947-0.787c1.99,0.418,3.364,1.225,4.073,1.892c0,0-0.674,0.195-1.167,0.854
	C39.494,35.06,38.237,33.942,35.929,33.609L35.929,33.609z"/>
<path fill-rule="evenodd" clip-rule="evenodd" fill="#231F20" d="M38.71,42.537c0,0-1.619-0.03-2.632-0.928
	c-0.337-0.297-0.149-0.715,0.387-0.715s1.396,0.103,2.247-0.1L38.71,42.537L38.71,42.537z"/>
<path fill-rule="evenodd" clip-rule="evenodd" fill="#231F20" d="M38.449,43.254c-0.093,0.287-0.292,0.694-0.472,0.762
	c0,0-0.391,0.111-0.937,0.127c-0.354,0.009-0.656-0.023-1.208-0.422c-0.375-0.268-0.937-0.829-1.122-1.023
	c-0.216-0.228-0.341-0.438-0.147-0.778c0.19-0.333,0.514-0.397,0.953-0.056c0.44,0.34,0.877,0.647,1.389,0.834
	c0.473,0.175,0.851,0.254,1.292,0.268C38.331,42.97,38.495,43.107,38.449,43.254L38.449,43.254z"/>
<path fill-rule="evenodd" clip-rule="evenodd" fill="#231F20" d="M37.476,46.209c-0.875,0.194-1.594-0.21-2.031-0.432
	c-0.42-0.219-1.479-1.043-1.709-1.274c-0.354-0.359-0.388-0.781-0.145-1.075c0.242-0.289,0.584-0.398,0.876-0.206
	c0.292,0.197,0.752,0.712,1.123,0.957c0.431,0.288,1.007,0.55,1.513,0.49c0,0,0.473-0.032,0.765-0.128
	c0.292-0.101,0.437,0.058,0.391,0.498C38.21,45.478,37.917,46.111,37.476,46.209L37.476,46.209z"/>
<path fill-rule="evenodd" clip-rule="evenodd" fill="#231F20" d="M36.54,46.782c-0.469-0.057-1.052-0.348-1.388-0.522
	c-0.582-0.31-1.531-1.069-1.921-1.36c-0.391-0.293-0.775-0.211-0.958,0.09c-0.435,0.733,1.076,1.802,1.903,2.341
	c0.826,0.536,1.517,0.683,2.195,0.632c0.681-0.048,1.152-0.444,1.141-1.192C37.511,46.771,37.165,46.864,36.54,46.782L36.54,46.782z
	"/>
<path fill-rule="evenodd" clip-rule="evenodd" fill="#231F20" d="M30.813,46.26c0.201-0.292,0.744-0.386,1.085,0.003
	c0.338,0.392,1.629,1.386,2.376,1.75c0.743,0.362,1.232,0.526,2.047,0.488c0,0,0.098,0.388-0.197,0.729
	c-0.292,0.342-1.022,0.392-1.95,0.195c-0.928-0.195-1.803-0.633-2.439-1.265C31.103,47.527,30.469,46.744,30.813,46.26L30.813,46.26
	z"/>
<path fill-rule="evenodd" clip-rule="evenodd" fill="#231F20" d="M28.228,46.939c-0.074-0.195,0-0.292,0.341-0.245
	c0.342,0.049,0.397,0.041,0.584,0.049c0.293,0.015,0.637-0.002,0.877,0.34c0.513,0.733,1.269,1.514,1.953,2.05
	c0.684,0.537,1.951,0.927,2.776,0.876c0,0,0.242,0.296,0,0.634c-0.242,0.341-1.072,0.341-1.609,0.244
	c-0.537-0.098-2.025-0.624-3.188-1.75C29.216,48.417,28.532,47.759,28.228,46.939L28.228,46.939z"/>
<path fill-rule="evenodd" clip-rule="evenodd" fill="#231F20" d="M27.922,48.068c0.225-0.097,0.43,0.107,0.73,0.505
	c0.251,0.333,1.044,1.285,2.161,1.975c0.967,0.598,2.178,0.791,2.618,0.737c0.438-0.048,0.355,0.238-0.184,0.385
	c-0.534,0.144-1.698,0.221-2.679,0c-0.978-0.218-1.726-0.708-2.217-1.332c-0.363-0.462-0.503-0.684-0.563-1.204
	C27.789,49.134,27.692,48.164,27.922,48.068L27.922,48.068z"/>
<path fill-rule="evenodd" clip-rule="evenodd" fill="#231F20" d="M40.583,42.07c0,0-0.342-0.73-1.272-1.424
	c0,0,0.595-0.163,0.973-0.786c0,0,0.605,0.864,2.401,1.033C42.685,40.894,41.414,41.291,40.583,42.07L40.583,42.07z"/>
<path fill-rule="evenodd" clip-rule="evenodd" fill="#231F20" d="M24.385,54.126c0-1.235,0.755-1.235,1.277-1.235
	c0.518,0,1.297,0.319,1.817,0.777c0.519,0.458,0.975,1.042,0.975,3.055c0,2.014-0.227,5.525,1.56,5.525
	c2.018,0,2.509,0.262,2.963,1.756c0.454,1.495,0.614,3.704,0.614,6.631c0,2.923-1.496,8.385-3.577,8.385
	c-2.079,0-3.582-2.688-3.745-6.256c-0.164-3.545,0.548-5.311,1.146-7.137c0.475-1.441,0.486-2.249,0.032-2.886
	c-0.381-0.526-0.948-0.697-1.593-0.843c-0.696-0.154-1.467-0.402-1.467-1.795C24.387,58.936,24.385,54.126,24.385,54.126
	L24.385,54.126z"/>
<path fill-rule="evenodd" clip-rule="evenodd" fill="#231F20" d="M23.395,62.281l0.011-4.654c-0.511,1.243-2.595,4.64-6.413,4.64
	c-0.759,0-2.708-0.184-4.419-1.843c-1.688-1.633-2.561-4.134-2.603-7.433l-0.027-2.497c-0.065-7.378-0.034-15.41-1.779-19.572
	c-0.763-1.822-2.037-4.144-4.882-4.143C1.982,26.787,1,27.709,1,28.826c0,1.135,0.916,2.05,2.047,2.05
	c0.24,0,0.469-0.042,0.688-0.12l0,0c0.009-0.001,0.016-0.006,0.027-0.01c0.038-0.012,0.073-0.027,0.109-0.042
	c1.077-0.406,2.076-0.191,2.746,1.154c1.834,3.689,1.655,12.254,1.737,18.656l0.026,2.605c0.105,8.558,5.473,10.837,8.612,10.837
	c1.581,0,2.873-0.283,4.062-0.896c0.758-0.298,1.344-0.3,1.74-0.229C23.062,62.858,23.395,62.751,23.395,62.281L23.395,62.281z"/>
<path fill-rule="evenodd" clip-rule="evenodd" fill="#231F20" d="M32.991,62.302c0.706,0,1.314-0.182,1.314-1.286
	c0-1.107,0-6.241,0-6.762c0-0.522,0-0.848-0.327-1.169c-0.323-0.327-0.451-0.586-0.451-1.044l-0.521,0.066v1.3
	c0,0,0.585,0.194,0.585,1.235c0,0.845,0,6.178,0,6.633C33.591,61.744,33.283,62.229,32.991,62.302L32.991,62.302z"/>
<path fill-rule="evenodd" clip-rule="evenodd" fill="#231F20" d="M34.817,58.802c0.13-1.007,1.696-1.63,3.445-1.754
	c1.854-0.128,3.803,0.328,4.777,1.041c0.976,0.713,1.234,2.01,0.795,3.087c-0.386,0.96-1.214,1.521-1.799,1.468
	c-0.634-0.046-1.026-0.115-1.61-0.629c-0.583-0.521-1.707-1.122-3.168-1.122C36.337,60.894,34.534,60.996,34.817,58.802
	L34.817,58.802z"/>
<path fill-rule="evenodd" clip-rule="evenodd" fill="#231F20" d="M41.988,69.684c0.073-0.833,0.023-4.185-1.029-5.866
	c-0.491-0.784-1.686-2.292-4.092-2.292c-2.406,0-2.912,1.579-2.755,2.545c0.324,2.018,1.364,2.401,2.275,2.401
	c0.909,0,2.015-0.323,2.729-0.713c0.716-0.39,0.928-0.06,0.976,0.52c0.183,2.211-0.16,4.634-0.16,4.634
	c-0.041,0.496,0.064,1.053,0.416,1.276c0.357,0.22,0.786,0.179,1.201,0.011c0.467-0.196,1.198-0.07,1.734-0.1
	c0.933-0.063,1.629-0.24,3.102-0.311c1.368-0.063,4.239,0.147,5.798,0.147c1.44,0,2.245-1.043,2.604-1.821
	c0.339-0.739,0.403-2.161-0.31-2.875c-0.716-0.713-1.569-0.651-2.018-0.547c-0.452,0.106-0.813,0.139-1.117-0.074
	c-0.424-0.289-0.419-0.947-0.389-1.188c-0.123,0.687-0.989,1.93-1.885,2.082c-1.128,0.194-2.13,0.053-3.19-0.193
	c-1.117-0.259-1.208-0.849-1.012-1.562c0.198-0.712,0.402-2.726,0.351-4.078c-0.029-0.78-0.119-1.772-0.768-2.422
	c0,0,0.549,1.724-0.229,5.071c-0.519,2.227-0.54,2.729-0.281,3.21c0.342,0.633,1.332,0.681,2.202,0.649
	c2.126-0.081,5.121,0.606,5.758,1.684c0.378,0.638,0.065,1.063-0.523,1.24c-0.757,0.221-2.1-0.391-2.636-0.545
	c-1.655-0.492-3.288-0.258-4.746,0.349c-0.413,0.199-0.904,0.292-1.249,0.244C42.422,71.12,41.857,70.865,41.988,69.684
	L41.988,69.684z"/>
<path fill-rule="evenodd" clip-rule="evenodd" fill="#231F20" d="M52.981,66.168c-0.376-0.135-1.674,0.563-1.493-0.563
	c0.104-0.678,0.71-1.449,1.462-1.584c0.749-0.138,1.54,0.194,1.811,0.396c0.19,0.15,0.174,0.244-0.196,0.268
	C53.879,64.736,53.229,65.583,52.981,66.168L52.981,66.168z"/>
<path fill-rule="evenodd" clip-rule="evenodd" fill="#231F20" d="M54.126,62.469c-0.257-0.258-1.37-0.744-2.122-0.196
	c-0.751,0.546-0.615,1.501-0.41,2.117c0,0,0.695-0.787,1.686-0.815c0,0-0.017-0.197,0.342-0.551
	C54.005,62.642,54.401,62.741,54.126,62.469L54.126,62.469z"/>
<path fill-rule="evenodd" clip-rule="evenodd" fill="#231F20" d="M55.995,63.062c0-0.235-0.551-0.667-1.245-0.364
	c-0.289,0.118-0.635,0.491-0.837,0.905c0,0,0.499,0.088,0.87,0.418C54.783,64.021,55.208,63.263,55.995,63.062L55.995,63.062z"/>
<path fill-rule="evenodd" clip-rule="evenodd" fill="#231F20" d="M53.026,61.572c0.406-0.73,1.232-1.103,1.637-1.103
	c0.403,0,0.811,0.176,1.158,0.475c0,0-0.419,0.011-0.987,0.471c-0.289,0.243-0.47,0.753-0.47,0.753S53.956,61.635,53.026,61.572
	L53.026,61.572z"/>
<path fill-rule="evenodd" clip-rule="evenodd" fill="#231F20" d="M53.627,66.23c0.176-0.405,0.896-0.771,1.247-0.771
	c0.488-0.001,0.771,0.114,1.118,0.422c0,0-0.788,0.345-1.162,1.081C54.83,66.962,54.364,66.396,53.627,66.23L53.627,66.23z"/>
<path fill-rule="evenodd" clip-rule="evenodd" fill="#231F20" d="M26.048,75.336c-0.172-0.631-0.325-1.489-0.363-2.646
	c-0.064-1.949,0.13-4.099,0.846-6.406c0.663-2.145,0.742-2.582,0.287-3.152c-0.295-0.364-0.879-0.566-1.594-0.641
	c-0.571-0.073-0.991,0.062-1.09,0.579c-0.485,2.602-0.566,7.876,0.031,10.631c0.153,0.693,0.297,1.207,0.499,1.591
	c-1.238,0.012-2.289,0.231-2.981,0.55c-0.727,0.331-1.072,0.229-1.454-0.007c-0.381-0.243-0.954-0.479-1.523-0.337
	c-1.954,0.49-1.097,3.195-0.859,4.293c0.238,1.095,0.174,2.646,0.099,5.229c-0.066,2.244,0.145,3.693,0.322,4.556
	c0.389,1.871,2.141,2.297,3.294,2.177c1.224-0.135,1.906-1.004,1.956-1.527c0.047-0.528-0.423-0.62-0.665-0.183
	c-0.302,0.547-0.156-1.398-1.121-1.339c-0.711,0.041-1.208,0.653-1.752,0.38c-0.712-0.353-0.501-2.405-0.403-5.268
	c0.035-1.066,0.034-2.072-0.588-3.023c-0.231-0.354-0.489-0.922-0.573-1.609c-0.052-0.422,0.056-0.874,0.249-1.125
	c0.249-0.321,0.67-0.483,1.183-0.345c0.611,0.166,0.829,0.258,1.443,0.237c0.661-0.021,1.33-0.277,1.875-0.637
	c0.48-0.316,0.951-0.729,1.102-0.821c0.52-0.31,0.99-0.392,1.396-0.447C26.048,76.017,26.149,75.609,26.048,75.336L26.048,75.336z"
	/>
<path fill-rule="evenodd" clip-rule="evenodd" fill="#231F20" d="M20.517,88.45c0.508-0.262,1.04-0.429,1.334-0.417
	c0.631,0.025,0.95,0.538,1.194,1.167c0,0-0.223-0.848-0.025-1.432c0.102-0.318,0.559-0.975,1.316-1.086c0,0-1.829,0.116-1.976-0.864
	c-0.148-0.979-0.178-2.308-0.148-2.799c0.053-0.852,0.835-1.807,1.176-2.15c0.344-0.345,0.548-0.495,1.381-0.397
	c0.833,0.094,3.234,0.958,4.892,0.789c1.413-0.139,2.644-1.028,2.599-3.234c-0.211,0.541-0.697,1.059-0.992,1.209
	c0,0-0.415,0.889-1.201,1.152c-0.877,0.288-1.828,0.129-2.098,0c0.61-0.049,1.228-0.963,1.033-1.033
	c-0.717-0.259-1.509-0.55-2.303-2.164c-0.282-0.565-0.82-0.534-0.948-0.521c-0.962,0.102-1.743,0.629-2.516,1.459
	c-0.434,0.477-0.895,0.962-1.027,1.522c-0.11,0.462-0.328,0.811-0.683,1.024c-0.33,0.205-1.561,0.432-1.432,1.21
	c0.213,1.289,0.042,2.465,0.01,3.771C20.071,86.96,19.933,88.749,20.517,88.45L20.517,88.45z"/>
<path fill-rule="evenodd" clip-rule="evenodd" fill="#231F20" d="M23.668,87.777c0.5-0.84,2.058-0.905,2.707-0.805
	c0.545,0.078,1.63,0.534,1.828,1.263c0,0-0.402,0.279-0.465,0.93c-0.048,0.532,0,1.063-0.094,1.09
	c-0.111,0.025-0.107,0.005-0.196-0.489c-0.12-0.657-0.348-1.016-0.729-1.359c-0.357-0.316-1.226-0.413-1.082-0.023
	c0.146,0.394,0.19,0.838,0.154,1.245c-0.058,0.638-0.5,1.169-0.634,0.705c-0.143-0.477-0.772-1.162-1.6-1.209
	C23.557,89.124,23.298,88.397,23.668,87.777L23.668,87.777z"/>
<path fill-rule="evenodd" clip-rule="evenodd" fill="#231F20" d="M28.716,88.727c-0.418,0-0.488,1.073-0.488,1.513
	c0,0.433,0.146,0.484,0.292,0.582c0.149,0.099,0.437,0.39,0.342,0.732c-0.099,0.34-0.05,0.631,0.342,0.34
	c0.387-0.291,0.684-1.17,0.583-1.709C29.692,89.65,29.249,88.727,28.716,88.727L28.716,88.727z"/>
<path fill-rule="evenodd" clip-rule="evenodd" fill="#231F20" d="M26.252,89.021c0.048-0.299,0.454,0.299,0.585,0.63
	c0.186,0.477,0.307,1.262,0.21,1.744c-0.097,0.494-0.21,0.646-0.358,0.208c-0.144-0.439-0.611-0.745-0.438-1.121
	C26.4,90.16,26.446,89.528,26.252,89.021L26.252,89.021z"/>
<path fill-rule="evenodd" clip-rule="evenodd" fill="#231F20" d="M23.97,89.755c0.512,0.358,0.81,1.063,0.795,1.504
	c-0.015,0.343-0.066,0.525-0.245,0.734c-0.141,0.168-0.262,0.151-0.339-0.243c-0.049-0.247-0.148-0.684-0.343-0.83
	C23.839,90.92,24.118,90.585,23.97,89.755L23.97,89.755z"/>
<polygon fill-rule="evenodd" clip-rule="evenodd" fill="#231F20" points="32.505,13.82 31.466,13.82 31.563,16.447 32.468,16.447 
	32.581,13.82 32.505,13.82 "/>
<polygon fill-rule="evenodd" clip-rule="evenodd" fill="#231F20" points="34.106,14.165 33.216,16.557 34.055,16.904 35.164,14.52 
	34.133,14.094 34.106,14.165 "/>
<polygon fill-rule="evenodd" clip-rule="evenodd" fill="#231F20" points="36.354,15.366 34.678,17.29 35.336,17.91 37.218,16.07 
	36.406,15.31 36.354,15.366 "/>
<polygon fill-rule="evenodd" clip-rule="evenodd" fill="#231F20" points="37.922,17.136 35.735,18.445 36.171,19.24 38.527,18.071 
	37.986,17.096 37.922,17.136 "/>
<polygon fill-rule="evenodd" clip-rule="evenodd" fill="#231F20" points="38.829,19.419 36.313,19.872 36.443,20.77 39.058,20.511 
	38.901,19.406 38.829,19.419 "/>
<polygon fill-rule="evenodd" clip-rule="evenodd" fill="#231F20" points="36.469,21.686 36.469,22.699 39.097,22.699 39.097,21.639 
	36.469,21.637 36.469,21.686 "/>
<polygon fill-rule="evenodd" clip-rule="evenodd" fill="#231F20" points="29.847,14.122 28.889,14.52 29.997,16.904 30.833,16.557 
	29.917,14.094 29.847,14.122 "/>
<polygon fill-rule="evenodd" clip-rule="evenodd" fill="#231F20" points="27.564,15.303 26.809,16.014 28.708,17.911 29.366,17.291 
	27.622,15.249 27.564,15.303 "/>
<polygon fill-rule="evenodd" clip-rule="evenodd" fill="#231F20" points="25.958,17.129 25.455,18.038 27.878,19.24 28.313,18.445 
	25.994,17.063 25.958,17.129 "/>
<polygon fill-rule="evenodd" clip-rule="evenodd" fill="#231F20" points="25.034,19.483 24.891,20.511 27.605,20.77 27.731,19.872 
	25.047,19.407 25.034,19.483 "/>
<polygon fill-rule="evenodd" clip-rule="evenodd" fill="#231F20" points="27.527,21.637 24.811,21.639 24.811,22.699 27.577,22.699 
	27.577,21.637 27.527,21.637 "/>
<path fill-rule="evenodd" clip-rule="evenodd" fill="#231F20" d="M33.793,21.159c-0.125-0.155-0.205-0.14-0.225,0.113
	c-0.03,0.38-0.239,0.785-0.571,0.947c-0.423,0.199-0.73,0.633-0.73,1.079c0,0.445,0,0.866,0,1.372c0,0.669,0.443,0.89,0.95,0.89
	c0.509,0,1.228-0.221,1.228-1.683C34.445,22.606,34.172,21.637,33.793,21.159L33.793,21.159z"/>
<path fill-rule="evenodd" clip-rule="evenodd" fill="#231F20" d="M35.8,20.546c-0.333,0.185-0.941,0.412-1.53,0.185
	c-0.209-0.08-0.348,0.006-0.158,0.199c0.189,0.19,0.744,1.083,0.744,2.422c0,0.292-0.01,0.467-0.002,0.558
	c0.017,0.195,0.152,0.117,0.265,0.062c0.261-0.125,1.003-0.954,1.003-2.479C36.123,20.222,35.8,20.546,35.8,20.546L35.8,20.546z"/>
<path fill-rule="evenodd" clip-rule="evenodd" fill="#231F20" d="M30.254,21.159c0.124-0.155,0.201-0.14,0.224,0.113
	c0.029,0.38,0.236,0.785,0.571,0.947c0.422,0.199,0.731,0.633,0.731,1.079c0,0.445,0,0.866,0,1.372c0,0.669-0.444,0.89-0.953,0.89
	c-0.509,0-1.225-0.221-1.225-1.683C29.602,22.606,29.874,21.637,30.254,21.159L30.254,21.159z"/>
<path fill-rule="evenodd" clip-rule="evenodd" fill="#231F20" d="M32.024,21.429H30.92c-0.094,0-0.173-0.093-0.173-0.172v-1.621
	c0-0.079-0.083-0.179-0.179-0.179h-2.11c-0.08,0-0.097-0.109-0.074-0.169c0.53-1.471,1.979-2.496,3.64-2.496
	c1.658,0,3.107,1.025,3.636,2.496c0.021,0.06,0.007,0.169-0.074,0.169h-2.111c-0.094,0-0.175,0.1-0.175,0.179v1.621
	c0,0.079-0.08,0.172-0.17,0.172H32.024L32.024,21.429z"/>
<path fill-rule="evenodd" clip-rule="evenodd" fill="#231F20" d="M28.257,20.546c0.336,0.185,0.942,0.412,1.528,0.185
	c0.213-0.08,0.351,0.006,0.163,0.199c-0.193,0.19-0.744,1.083-0.744,2.422c0,0.292,0.009,0.467,0,0.558
	c-0.019,0.195-0.151,0.117-0.266,0.062c-0.263-0.125-1.003-0.954-1.003-2.479C27.935,20.222,28.257,20.546,28.257,20.546
	L28.257,20.546z"/>
<path fill-rule="evenodd" clip-rule="evenodd" fill="#231F20" d="M56.502,36.988c-0.669,0.38-1.352,0.5-1.512,0.523
	c-0.158,0.019-0.999,0.078-0.999-0.524c0-0.478,0.648-0.53,0.999-0.53C55.153,36.458,55.817,36.595,56.502,36.988L56.502,36.988z"/>
<path fill-rule="evenodd" clip-rule="evenodd" fill="#231F20" d="M29.063,56.694c0,0,0,1.526,0,2.184
	c0,1.362,0.181,2.706,1.015,2.706c1.842,0,2.325,0.422,2.325,0.422c0.417,0,0.486-0.693,0.486-1.111c0-0.416,0-5.833,0-6.181
	c0-0.346-0.208-0.624-0.348-0.693c-0.138-0.071-0.138-0.071-0.138-0.071v-1.495c0,0-2.787,0.607-4.458-1.481
	c-0.085-0.103-0.215,0-0.215,0.219c0,0.215,0.085,1.248-0.798,1.403c0,0,0.906,0.346,1.399,0.99
	C28.73,54.104,29.063,55.006,29.063,56.694L29.063,56.694z"/>
<path fill-rule="evenodd" clip-rule="evenodd" fill="#FFFFFF" d="M30.838,54.479c0,0.037,0.03,0.071,0.066,0.071h0.875
	c0.034,0,0.066-0.035,0.066-0.071v-0.907c0-0.037-0.032-0.064-0.066-0.064h-0.875c-0.036,0-0.066,0.028-0.066,0.064V54.479
	L30.838,54.479z"/>
<path fill-rule="evenodd" clip-rule="evenodd" fill="#FFFFFF" d="M30.838,56.578c0,0.039,0.03,0.066,0.066,0.066h0.875
	c0.034,0,0.066-0.027,0.066-0.066v-0.909c0-0.038-0.032-0.064-0.066-0.064h-0.875c-0.036,0-0.066,0.027-0.066,0.064V56.578
	L30.838,56.578z"/>
<path fill-rule="evenodd" clip-rule="evenodd" fill="#FFFFFF" d="M30.838,58.578c0,0.036,0.03,0.067,0.066,0.067h0.875
	c0.034,0,0.066-0.031,0.066-0.067v-0.91c0-0.038-0.032-0.067-0.066-0.067h-0.875c-0.036,0-0.066,0.029-0.066,0.067V58.578
	L30.838,58.578z"/>
<path fill-rule="evenodd" clip-rule="evenodd" fill="#FFFFFF" d="M30.838,60.726c0,0.034,0.03,0.065,0.066,0.065h0.875
	c0.034,0,0.066-0.031,0.066-0.065v-0.914c0-0.035-0.032-0.065-0.066-0.065h-0.875c-0.036,0-0.066,0.031-0.066,0.065V60.726
	L30.838,60.726z"/>
<path fill-rule="evenodd" clip-rule="evenodd" fill="#231F20" d="M22.043,78.369c-0.599,0.229-1.223,0.236-1.802,0.052
	c-0.594-0.188-0.993-0.109-1.148,0.122c-0.145,0.219-0.084,0.884,0.035,1.191c0.162,0.397,0.197,0.589,0.431,0.911
	c0.119,0.173,0.354,0.169,0.575,0.017c0.301-0.205,0.483-0.288,0.704-0.364c0.22-0.073,0.524-0.194,0.647-0.511
	c0.123-0.317,0.425-0.986,0.619-1.208S22.247,78.296,22.043,78.369L22.043,78.369z"/>
<path fill-rule="evenodd" clip-rule="evenodd" fill="#231F20" d="M44.019,61.898c-0.262,0.65-0.861,1.092-1.691,1.301
	c-0.184,0.046-1.089-0.073-1.317-0.235c0,0,1.454,1.382,1.563,5.278c0.018,0.593,0.037,0.97,0.015,1.525
	c-0.01,0.228-0.098,1.037,0.78,0.715c0.876-0.324,2.343-0.767,3.315-0.784c1.765-0.031,3.292,0.642,3.735,0.776
	c0.564,0.171,0.8,0.073,0.914-0.059c0.308-0.358-1.156-1.47-4.129-1.616c-1.006-0.051-2.032-0.067-2.387-0.098
	c-0.357-0.034-1.056-0.228-1.39-0.802c-0.268-0.468-0.268-1.488-0.051-2.516C43.547,64.584,44.008,62.843,44.019,61.898
	L44.019,61.898z"/>
<path fill-rule="evenodd" clip-rule="evenodd" fill="#FFFFFF" d="M65.02,30.053c-0.798,0.328-1.304,0.8-1.161,2.137
	c0,0,0.502-0.626,1.396-0.397c0.459,0.118-0.138-0.125-0.138-0.125L65.02,30.053L65.02,30.053z"/>
<path fill-rule="evenodd" clip-rule="evenodd" fill="#FFFFFF" d="M64.877,36.088c-1.66,0.414-1.911,0.918-1.911,0.918
	s0.32,0.497,1.862,0.886L64.877,36.088L64.877,36.088z"/>
<path fill-rule="evenodd" clip-rule="evenodd" fill="#FFFFFF" d="M65.142,42.168c-0.471,0.131-0.836-0.025-1.104-0.294
	c0,0-0.662,1.432,1.095,1.906L65.142,42.168L65.142,42.168z"/>
<path fill-rule="evenodd" clip-rule="evenodd" fill="#FFFFFF" d="M65.155,59.999c-0.682,0.176-1.451,0.574-1.546,1.24
	c0,0,0.88-0.071,1.376,0.696L65.155,59.999L65.155,59.999z"/>
<path fill-rule="evenodd" clip-rule="evenodd" fill="#FFFFFF" d="M65.05,62.162c-0.973-0.063-1.452,0.547-1.564,1.2
	c0,0,0.775-0.052,1.319,0.777L65.05,62.162L65.05,62.162z"/>
<path fill-rule="evenodd" clip-rule="evenodd" fill="#FFFFFF" d="M65.132,64.988c-0.819,0.127-1.504,0.501-1.612,1.144
	c0,0,0.776,0.023,1.198,0.937L65.132,64.988L65.132,64.988z"/>
<polygon fill-rule="evenodd" clip-rule="evenodd" fill="#231F20" points="83.54,23.83 80.903,23.832 80.903,24.894 83.54,24.892 
	83.54,23.83 "/>
<polygon fill-rule="evenodd" clip-rule="evenodd" fill="#231F20" points="80.903,26.003 80.903,27.063 83.876,27.06 83.876,26.004 
	80.956,26.003 80.903,26.003 "/>
<polygon fill-rule="evenodd" clip-rule="evenodd" fill="#231F20" points="80.903,30.345 80.903,31.406 95.195,31.406 95.195,30.347 
	80.956,30.345 80.903,30.345 "/>
<polygon fill-rule="evenodd" clip-rule="evenodd" fill="#231F20" points="84.096,28.172 80.903,28.174 80.903,29.234 84.762,29.232 
	84.11,28.191 84.096,28.172 "/>
<polygon fill-rule="evenodd" clip-rule="evenodd" fill="#231F20" points="92.42,23.83 92.42,24.892 95.19,24.894 95.19,23.832 
	92.471,23.83 92.42,23.83 "/>
<polygon fill-rule="evenodd" clip-rule="evenodd" fill="#231F20" points="95.19,26.003 92.079,26.004 92.079,27.06 95.19,27.063 
	95.19,26.003 "/>
<path fill-rule="evenodd" clip-rule="evenodd" fill="#231F20" d="M95.195,32.523l-3.545,0.002l0.201,0.092
	c0.007,0.004,0.769,0.401,1.334,0.964l0.012,0.013l1.998,0V32.523L95.195,32.523z"/>
<path fill-rule="evenodd" clip-rule="evenodd" fill="#231F20" d="M95.124,36.757v-1.998l-0.978,0
	C94.605,35.358,94.913,35.974,95.124,36.757L95.124,36.757z"/>
<polygon fill-rule="evenodd" clip-rule="evenodd" fill="#231F20" points="91.858,28.167 91.191,29.227 95.19,29.234 95.19,28.17 
	91.888,28.167 91.858,28.167 "/>
<polygon fill-rule="evenodd" clip-rule="evenodd" fill="#231F20" points="86.658,28.707 86.658,26.36 86.063,25.864 85.702,26.261 
	85.963,28.541 86.658,28.707 "/>
<path fill-rule="evenodd" clip-rule="evenodd" fill="#231F20" d="M87.974,29.785c0.559-0.376,0.87-0.947,0.87-1.64
	c0-0.695,0-2.142,0-2.142h-1.736c0,0,0,1.446,0,2.142C87.107,28.838,87.424,29.409,87.974,29.785L87.974,29.785z"/>
<polygon fill-rule="evenodd" clip-rule="evenodd" fill="#231F20" points="89.283,28.707 89.283,26.36 89.876,25.864 90.237,26.261 
	89.971,28.541 89.283,28.707 "/>
<path fill-rule="evenodd" clip-rule="evenodd" fill="#231F20" d="M64.925,42.592c0.611-0.106,0.752-0.83,0.479-1.3
	c0,0-0.191-0.269-0.256-0.375c-0.244-0.427-0.195-0.813-0.063-1.071c0,0,0.42,0.319,1.085,0.243c0,0-0.115,0.076-0.192,0.33
	c-0.09,0.319,0.211,0.568,0.602,0.492c0.351-0.07,0.744-0.26,1.166-0.814c0.161-0.207,0.466-0.469,0.753-0.632
	c0.786-0.422,1.83-0.303,3.396-0.303c0.755,0,1.856-0.149,2.436-0.312c0.617-0.169,1.232-0.507,1.184-0.929
	c-0.05-0.422-0.783-0.683-1.575-0.877c-0.74-0.184-2.237-0.403-3.248-0.601c-1.687-0.332-2.098-1.374-2.425-2.351
	c-0.324-0.972-1.186-1.209-1.621-1.224c-0.353-0.012-0.78,0.126-0.716,0.453c0.064,0.328,0.241,0.41,0.241,0.41
	c-0.533-0.147-1.085,0.243-1.085,0.243c-0.133-0.262-0.23-0.672,0.063-1.171c0.171-0.288,0.256-0.402,0.282-0.432
	c0.221-0.409,0.004-1.071-0.559-1.092c-0.481-0.021-0.67,0.26-0.67,0.26c0-0.455,0.405-0.972,1.078-1.024
	c1.728-0.145,1.82,1.637,1.82,1.637c0.646,0.23,1.146,0.611,1.41,1.03c0.384,0.605,0.513,1.266,0.781,1.681
	c0.418,0.647,1.266,0.93,2.699,0.93c1.427,0,3.567-0.396,4.93-0.788c1.369-0.388,2.503-0.046,2.92,0.724
	c0.39,0.717,0.329,2.079-0.256,2.992c-0.588,0.911-1.82,1.559-4.683,1.727c-0.973,0.061-2.138-0.053-3.411-0.331
	c-1.498-0.324-2.084-0.282-2.523-0.129c-0.426,0.147-1.102,0.494-1.644,1.642c0,0-0.497,1.695-2.056,1.713
	c-0.525,0.006-0.978-0.243-1.056-0.886C64.213,42.453,64.455,42.672,64.925,42.592L64.925,42.592z"/>
<path fill-rule="evenodd" clip-rule="evenodd" fill="#231F20" d="M66.483,36.94c0-0.558-0.71-0.917-1.53-0.917
	c-0.081-0.169-0.125-0.351-0.093-0.593c0.063-0.485,0.582-1.075,1.56-1.075c1.07,0,2.192,0.736,2.192,2.589
	s-1.122,2.579-2.192,2.579c-0.978,0-1.512-0.587-1.56-1.071c-0.024-0.278,0.012-0.432,0.11-0.554
	C65.825,37.975,66.483,37.625,66.483,36.94L66.483,36.94z"/>
<path fill-rule="evenodd" clip-rule="evenodd" fill="#231F20" d="M90.281,37.618c0-0.733-0.604-0.837-1.108-0.982
	c-0.889-0.259-1.533-0.703-2.081-1.251c-0.537-0.539-1.218-1.072-2.093-1.072c-0.885,0-1.488,0.097-2.466,0.51
	c-0.944,0.401-1.855,0.84-1.74,1.78c0.099,0.854-0.127,1.559-0.271,1.901c-0.148,0.341-0.289,1.026,0.478,1.35
	c0.625,0.261,1.335,0.39,2.632,0.31c1.838-0.122,3.816-0.72,5.313-1.365C89.626,38.5,90.281,38.152,90.281,37.618L90.281,37.618z"/>
<path fill-rule="evenodd" clip-rule="evenodd" fill="#231F20" d="M86.116,40.749c-0.262,0.131-0.354,0.371-0.257,0.712
	c0.101,0.339,0.389,1.446,2.256,3.138c0.67,0.61,1.809,1.36,2.732,1.414c0.962,0.057,1.261-0.438,1.261-0.974c0,0,0-0.579,0-0.919
	c0-0.342-0.239-0.791-0.624-0.88c-0.869-0.194-2.464-0.926-2.996-2.248c-0.164-0.406-0.449-0.731-1.041-0.635
	C86.868,40.455,86.508,40.555,86.116,40.749L86.116,40.749z"/>
<path fill-rule="evenodd" clip-rule="evenodd" fill="#231F20" d="M84.067,33.609c2.192-0.242,2.543,0.285,3.85,1.386
	c1.025,0.867,1.934,1.043,2.052,0.831c0.241-0.44-0.582-1.024-0.928-1.367c-0.339-0.341-0.046-0.675,0.493-0.383
	c0.533,0.292,1.706,1.442,1.906,2.46c0,0.006,0.004,0.011,0.004,0.019c0.005,0.014,0.008,0.027,0.01,0.038
	c0.054,0.33,0.164,1.394-0.703,2.138c-0.426,0.368-0.78,0.537-1.319,0.752c-0.43,0.167-0.635,0.828-0.146,1.461
	c0.491,0.635,1.396,1.324,2.491,1.615c0.662,0.177,1.015,0.643,1.015,1.34c0,1.692,0,6.65,0,7.172c0,0.517,0.249,1.158,0.999,1.158
	c0.747,0,1.26,0.17,1.26-0.478c0-0.654,0-10.136,0-11.305c0-4.875-2.752-6.845-3.689-7.345c-1.823-0.978-4.753-1.464-7.947-0.787
	c-1.991,0.418-3.365,1.225-4.075,1.892c0,0,0.671,0.195,1.17,0.854C80.508,35.06,81.766,33.942,84.067,33.609L84.067,33.609z"/>
<path fill-rule="evenodd" clip-rule="evenodd" fill="#231F20" d="M81.29,42.537c0,0,1.616-0.03,2.63-0.928
	c0.339-0.297,0.147-0.715-0.387-0.715c-0.532,0-1.395,0.103-2.245-0.1L81.29,42.537L81.29,42.537z"/>
<path fill-rule="evenodd" clip-rule="evenodd" fill="#231F20" d="M81.551,43.254c0.095,0.287,0.292,0.694,0.471,0.762
	c0,0,0.392,0.111,0.934,0.127c0.354,0.009,0.661-0.023,1.214-0.422c0.369-0.268,0.934-0.829,1.121-1.023
	c0.212-0.228,0.339-0.438,0.142-0.778c-0.188-0.333-0.511-0.397-0.949-0.056c-0.438,0.34-0.878,0.647-1.389,0.834
	c-0.471,0.175-0.852,0.254-1.289,0.268C81.671,42.97,81.504,43.107,81.551,43.254L81.551,43.254z"/>
<path fill-rule="evenodd" clip-rule="evenodd" fill="#231F20" d="M82.522,46.209c0.877,0.194,1.594-0.21,2.029-0.432
	c0.424-0.219,1.481-1.043,1.711-1.274c0.354-0.359,0.391-0.781,0.148-1.075c-0.246-0.289-0.585-0.398-0.875-0.206
	c-0.3,0.197-0.754,0.712-1.132,0.957c-0.429,0.288-1.003,0.55-1.51,0.49c0,0-0.468-0.032-0.763-0.128
	c-0.291-0.101-0.442,0.058-0.39,0.498C81.791,45.478,82.083,46.111,82.522,46.209L82.522,46.209z"/>
<path fill-rule="evenodd" clip-rule="evenodd" fill="#231F20" d="M83.459,46.782c0.47-0.057,1.056-0.348,1.392-0.522
	c0.579-0.31,1.531-1.069,1.921-1.36c0.392-0.293,0.774-0.211,0.955,0.09c0.439,0.733-1.073,1.802-1.9,2.341
	c-0.827,0.536-1.519,0.683-2.195,0.632c-0.684-0.048-1.151-0.444-1.142-1.192C82.489,46.771,82.837,46.864,83.459,46.782
	L83.459,46.782z"/>
<path fill-rule="evenodd" clip-rule="evenodd" fill="#231F20" d="M89.187,46.26c-0.196-0.292-0.742-0.386-1.083,0.003
	c-0.339,0.392-1.632,1.386-2.374,1.75c-0.747,0.362-1.238,0.526-2.049,0.488c0,0-0.104,0.388,0.192,0.729
	c0.296,0.342,1.027,0.392,1.953,0.195c0.924-0.195,1.802-0.633,2.437-1.265C88.896,47.527,89.53,46.744,89.187,46.26L89.187,46.26z"
	/>
<path fill-rule="evenodd" clip-rule="evenodd" fill="#231F20" d="M91.772,46.939c0.069-0.195,0-0.292-0.342-0.245
	c-0.343,0.049-0.399,0.041-0.583,0.049c-0.294,0.015-0.638-0.002-0.879,0.34c-0.513,0.733-1.267,1.514-1.95,2.05
	c-0.68,0.537-1.948,0.927-2.782,0.876c0,0-0.237,0.296,0,0.634c0.247,0.341,1.074,0.341,1.611,0.244
	c0.538-0.098,2.025-0.624,3.191-1.75C90.784,48.417,91.471,47.759,91.772,46.939L91.772,46.939z"/>
<path fill-rule="evenodd" clip-rule="evenodd" fill="#231F20" d="M92.082,48.068c-0.233-0.097-0.434,0.107-0.733,0.505
	c-0.252,0.333-1.042,1.285-2.162,1.975c-0.964,0.598-2.18,0.791-2.616,0.737c-0.438-0.048-0.353,0.238,0.18,0.385
	c0.535,0.144,1.698,0.221,2.682,0c0.977-0.218,1.727-0.708,2.217-1.332c0.361-0.462,0.504-0.684,0.563-1.204
	C92.212,49.134,92.31,48.164,92.082,48.068L92.082,48.068z"/>
<path fill-rule="evenodd" clip-rule="evenodd" fill="#231F20" d="M79.417,42.07c0,0,0.342-0.73,1.271-1.424
	c0,0-0.596-0.163-0.975-0.786c0,0-0.6,0.864-2.395,1.033C77.319,40.894,78.586,41.291,79.417,42.07L79.417,42.07z"/>
<path fill-rule="evenodd" clip-rule="evenodd" fill="#231F20" d="M95.616,54.126c0-1.235-0.753-1.235-1.276-1.235
	c-0.519,0-1.3,0.319-1.82,0.777c-0.521,0.458-0.974,1.042-0.974,3.055c0,2.014,0.227,5.525-1.563,5.525
	c-2.015,0-2.505,0.262-2.961,1.756c-0.452,1.495-0.611,3.704-0.611,6.631c0,2.923,1.494,8.385,3.572,8.385
	c2.082,0,3.585-2.688,3.748-6.256c0.161-3.545-0.546-5.311-1.146-7.137c-0.478-1.441-0.486-2.249-0.034-2.886
	c0.378-0.526,0.946-0.697,1.593-0.843c0.698-0.154,1.467-0.402,1.467-1.795C95.611,58.936,95.616,54.126,95.616,54.126
	L95.616,54.126z"/>
<path fill-rule="evenodd" clip-rule="evenodd" fill="#231F20" d="M96.603,62.281l-0.012-4.654c0.515,1.243,2.594,4.64,6.413,4.64
	c0.76,0,2.709-0.184,4.422-1.843c1.688-1.633,2.563-4.134,2.603-7.433l0.03-2.497c0.063-7.378,0.033-15.41,1.776-19.572
	c0.763-1.822,2.039-4.144,4.881-4.143c1.305,0.006,2.284,0.928,2.284,2.044c0,1.135-0.917,2.05-2.049,2.05
	c-0.237,0-0.47-0.042-0.688-0.12l0,0c-0.01-0.001-0.015-0.006-0.026-0.01c-0.032-0.012-0.068-0.027-0.105-0.042
	c-1.084-0.406-2.077-0.191-2.752,1.154c-1.83,3.689-1.652,12.254-1.735,18.656l-0.025,2.605c-0.105,8.558-5.472,10.837-8.614,10.837
	c-1.575,0-2.872-0.283-4.059-0.896c-0.759-0.298-1.347-0.3-1.738-0.229C96.937,62.858,96.603,62.751,96.603,62.281L96.603,62.281z"
	/>
<path fill-rule="evenodd" clip-rule="evenodd" fill="#231F20" d="M87.007,62.302c-0.703,0-1.31-0.182-1.31-1.286
	c0-1.107,0-6.241,0-6.762c0-0.522,0-0.848,0.32-1.169c0.325-0.327,0.454-0.586,0.454-1.044l0.521,0.066v1.3
	c0,0-0.581,0.194-0.581,1.235c0,0.845,0,6.178,0,6.633C86.411,61.744,86.716,62.229,87.007,62.302L87.007,62.302z"/>
<path fill-rule="evenodd" clip-rule="evenodd" fill="#231F20" d="M85.184,58.802c-0.124-1.007-1.691-1.63-3.446-1.754
	c-1.851-0.128-3.801,0.328-4.779,1.041c-0.971,0.713-1.232,2.01-0.793,3.087c0.385,0.96,1.217,1.521,1.8,1.468
	c0.635-0.046,1.021-0.115,1.608-0.629c0.586-0.521,1.705-1.122,3.172-1.122C83.665,60.894,85.464,60.996,85.184,58.802
	L85.184,58.802z"/>
<path fill-rule="evenodd" clip-rule="evenodd" fill="#231F20" d="M78.014,69.684c-0.072-0.833-0.021-4.185,1.028-5.866
	c0.488-0.784,1.688-2.292,4.093-2.292c2.406,0,2.91,1.579,2.754,2.545c-0.323,2.018-1.364,2.401-2.274,2.401
	c-0.913,0-2.017-0.323-2.729-0.713c-0.715-0.39-0.929-0.06-0.975,0.52c-0.182,2.211,0.156,4.634,0.156,4.634
	c0.044,0.496-0.064,1.053-0.417,1.276c-0.35,0.22-0.784,0.179-1.195,0.011c-0.468-0.196-1.196-0.07-1.733-0.1
	c-0.936-0.063-1.63-0.24-3.107-0.311c-1.363-0.063-4.237,0.147-5.796,0.147c-1.438,0-2.242-1.043-2.6-1.821
	c-0.341-0.739-0.405-2.161,0.309-2.875c0.715-0.713,1.569-0.651,2.018-0.547c0.446,0.106,0.813,0.139,1.115-0.074
	c0.421-0.289,0.416-0.947,0.391-1.188c0.12,0.687,0.987,1.93,1.884,2.082c1.126,0.194,2.125,0.053,3.187-0.193
	c1.121-0.259,1.211-0.849,1.018-1.562c-0.199-0.712-0.406-2.726-0.354-4.078c0.029-0.78,0.118-1.772,0.774-2.422
	c0,0-0.555,1.724,0.222,5.071c0.517,2.227,0.542,2.729,0.284,3.21c-0.344,0.633-1.335,0.681-2.201,0.649
	c-2.133-0.081-5.124,0.606-5.76,1.684c-0.381,0.638-0.069,1.063,0.521,1.24c0.759,0.221,2.097-0.391,2.634-0.545
	c1.655-0.492,3.294-0.258,4.748,0.349c0.415,0.199,0.906,0.292,1.252,0.244C77.577,71.12,78.143,70.865,78.014,69.684L78.014,69.684
	z"/>
<path fill-rule="evenodd" clip-rule="evenodd" fill="#231F20" d="M67.018,66.168c0.378-0.135,1.674,0.563,1.496-0.563
	c-0.108-0.678-0.717-1.449-1.466-1.584c-0.752-0.138-1.537,0.194-1.809,0.396c-0.192,0.15-0.171,0.244,0.191,0.268
	C66.119,64.736,66.772,65.583,67.018,66.168L67.018,66.168z"/>
<path fill-rule="evenodd" clip-rule="evenodd" fill="#231F20" d="M65.872,62.469c0.261-0.258,1.373-0.744,2.121-0.196
	c0.753,0.546,0.617,1.501,0.41,2.117c0,0-0.691-0.787-1.683-0.815c0,0,0.019-0.197-0.346-0.551
	C65.994,62.642,65.6,62.741,65.872,62.469L65.872,62.469z"/>
<path fill-rule="evenodd" clip-rule="evenodd" fill="#231F20" d="M64.006,63.062c0-0.235,0.55-0.667,1.246-0.364
	c0.289,0.118,0.635,0.491,0.839,0.905c0,0-0.5,0.088-0.871,0.418C65.22,64.021,64.791,63.263,64.006,63.062L64.006,63.062z"/>
<path fill-rule="evenodd" clip-rule="evenodd" fill="#231F20" d="M66.97,61.572c-0.401-0.73-1.225-1.103-1.635-1.103
	c-0.403,0-0.809,0.176-1.154,0.475c0,0,0.415,0.011,0.981,0.471c0.291,0.243,0.471,0.753,0.471,0.753S66.048,61.635,66.97,61.572
	L66.97,61.572z"/>
<path fill-rule="evenodd" clip-rule="evenodd" fill="#231F20" d="M66.368,66.23c-0.174-0.405-0.891-0.771-1.242-0.771
	c-0.489-0.001-0.772,0.114-1.118,0.422c0,0,0.788,0.345,1.159,1.081C65.167,66.962,65.633,66.396,66.368,66.23L66.368,66.23z"/>
<path fill-rule="evenodd" clip-rule="evenodd" fill="#231F20" d="M94.34,76.046c0.405,0.056,0.876,0.138,1.394,0.447
	c0.155,0.092,0.625,0.505,1.106,0.821c0.545,0.359,1.211,0.616,1.868,0.637c0.614,0.021,0.836-0.071,1.444-0.237
	c0.514-0.139,0.936,0.023,1.178,0.345c0.198,0.251,0.307,0.703,0.256,1.125c-0.086,0.688-0.344,1.255-0.579,1.609
	c-0.617,0.951-0.618,1.957-0.578,3.023c0.092,2.862,0.303,4.915-0.407,5.268c-0.552,0.273-1.04-0.339-1.757-0.38
	c-0.962-0.06-0.813,1.886-1.119,1.339c-0.237-0.438-0.708-0.346-0.66,0.183c0.049,0.523,0.73,1.393,1.949,1.527
	c1.154,0.12,2.907-0.306,3.294-2.177c0.18-0.862,0.396-2.312,0.328-4.556c-0.072-2.584-0.142-4.135,0.099-5.229
	c0.237-1.098,1.093-3.803-0.854-4.293c-0.574-0.142-1.148,0.094-1.526,0.337c-0.38,0.236-0.73,0.338-1.455,0.007
	c-0.695-0.318-1.741-0.538-2.984-0.55c0.206-0.384,0.349-0.897,0.499-1.591c0.602-2.755,0.518-8.029,0.029-10.631
	c-0.097-0.518-0.514-0.652-1.089-0.579c-0.717,0.074-1.299,0.276-1.589,0.641c-0.456,0.57-0.383,1.008,0.283,3.152
	c0.716,2.308,0.913,4.457,0.843,6.406c-0.035,1.156-0.184,2.015-0.359,2.646C93.855,75.609,93.952,76.017,94.34,76.046L94.34,76.046
	z"/>
<path fill-rule="evenodd" clip-rule="evenodd" fill="#231F20" d="M99.481,88.45c-0.51-0.262-1.042-0.429-1.332-0.417
	c-0.63,0.025-0.95,0.538-1.194,1.167c0,0,0.217-0.848,0.023-1.432c-0.101-0.318-0.558-0.975-1.313-1.086
	c0,0,1.831,0.116,1.971-0.864c0.154-0.979,0.182-2.308,0.154-2.799c-0.055-0.852-0.84-1.807-1.181-2.15
	c-0.341-0.345-0.548-0.495-1.38-0.397c-0.832,0.094-3.233,0.958-4.891,0.789c-1.411-0.139-2.646-1.028-2.596-3.234
	c0.205,0.541,0.696,1.059,0.985,1.209c0,0,0.414,0.889,1.205,1.152c0.881,0.288,1.825,0.129,2.094,0
	c-0.606-0.049-1.22-0.963-1.031-1.033c0.714-0.259,1.512-0.55,2.307-2.164c0.281-0.565,0.816-0.534,0.945-0.521
	c0.96,0.102,1.744,0.629,2.512,1.459c0.439,0.477,0.898,0.962,1.03,1.522c0.11,0.462,0.326,0.811,0.685,1.024
	c0.327,0.205,1.561,0.432,1.435,1.21c-0.216,1.289-0.047,2.465-0.012,3.771C99.927,86.96,100.066,88.749,99.481,88.45L99.481,88.45z
	"/>
<path fill-rule="evenodd" clip-rule="evenodd" fill="#231F20" d="M96.331,87.777c-0.5-0.84-2.055-0.905-2.708-0.805
	c-0.543,0.078-1.629,0.534-1.825,1.263c0,0,0.401,0.279,0.46,0.93c0.057,0.532,0,1.063,0.101,1.09
	c0.112,0.025,0.11,0.005,0.193-0.489c0.119-0.657,0.35-1.016,0.73-1.359c0.354-0.316,1.227-0.413,1.081-0.023
	c-0.15,0.394-0.19,0.838-0.155,1.245c0.062,0.638,0.501,1.169,0.637,0.705c0.138-0.477,0.771-1.162,1.597-1.209
	C96.441,89.124,96.704,88.397,96.331,87.777L96.331,87.777z"/>
<path fill-rule="evenodd" clip-rule="evenodd" fill="#231F20" d="M91.288,88.727c0.413,0,0.484,1.073,0.484,1.513
	c0,0.433-0.145,0.484-0.288,0.582c-0.152,0.099-0.444,0.39-0.343,0.732c0.094,0.34,0.045,0.631-0.341,0.34
	c-0.393-0.291-0.688-1.17-0.591-1.709C90.307,89.65,90.749,88.727,91.288,88.727L91.288,88.727z"/>
<path fill-rule="evenodd" clip-rule="evenodd" fill="#231F20" d="M93.745,89.021c-0.046-0.299-0.451,0.299-0.578,0.63
	c-0.189,0.477-0.314,1.262-0.214,1.744c0.096,0.494,0.214,0.646,0.356,0.208c0.146-0.439,0.611-0.745,0.436-1.121
	C93.597,90.16,93.552,89.528,93.745,89.021L93.745,89.021z"/>
<path fill-rule="evenodd" clip-rule="evenodd" fill="#231F20" d="M96.033,89.755c-0.518,0.358-0.813,1.063-0.802,1.504
	c0.012,0.343,0.067,0.525,0.25,0.734c0.142,0.168,0.257,0.151,0.338-0.243c0.046-0.247,0.144-0.684,0.344-0.83
	C96.163,90.92,95.887,90.585,96.033,89.755L96.033,89.755z"/>
<polygon fill-rule="evenodd" clip-rule="evenodd" fill="#231F20" points="87.421,13.82 87.532,16.447 88.439,16.447 88.534,13.82 
	87.421,13.82 "/>
<polygon fill-rule="evenodd" clip-rule="evenodd" fill="#231F20" points="85.87,14.094 84.837,14.52 85.946,16.904 86.785,16.557 
	85.894,14.165 85.87,14.094 "/>
<polygon fill-rule="evenodd" clip-rule="evenodd" fill="#231F20" points="83.591,15.31 82.779,16.07 84.658,17.91 85.323,17.29 
	83.591,15.31 "/>
<polygon fill-rule="evenodd" clip-rule="evenodd" fill="#231F20" points="82.012,17.096 81.479,18.071 83.835,19.24 84.266,18.445 
	82.079,17.136 82.012,17.096 "/>
<polygon fill-rule="evenodd" clip-rule="evenodd" fill="#231F20" points="81.1,19.406 80.942,20.511 83.559,20.77 83.688,19.872 
	81.173,19.419 81.1,19.406 "/>
<polygon fill-rule="evenodd" clip-rule="evenodd" fill="#231F20" points="83.528,21.637 80.903,21.639 80.903,22.699 83.528,22.699 
	83.528,21.637 "/>
<polygon fill-rule="evenodd" clip-rule="evenodd" fill="#231F20" points="90.081,14.094 89.168,16.557 90.003,16.904 91.113,14.52 
	90.151,14.122 90.081,14.094 "/>
<polygon fill-rule="evenodd" clip-rule="evenodd" fill="#231F20" points="92.378,15.249 90.634,17.291 91.295,17.911 93.192,16.014 
	92.435,15.303 92.378,15.249 "/>
<polygon fill-rule="evenodd" clip-rule="evenodd" fill="#231F20" points="94.008,17.063 91.689,18.445 92.123,19.24 94.544,18.038 
	94.008,17.063 "/>
<polygon fill-rule="evenodd" clip-rule="evenodd" fill="#231F20" points="94.953,19.407 92.268,19.872 92.395,20.77 95.107,20.511 
	94.963,19.483 94.953,19.407 "/>
<polygon fill-rule="evenodd" clip-rule="evenodd" fill="#231F20" points="92.425,21.637 92.425,22.699 95.19,22.699 95.19,21.639 
	92.476,21.637 92.425,21.637 "/>
<path fill-rule="evenodd" clip-rule="evenodd" fill="#231F20" d="M86.209,21.159c0.122-0.155,0.202-0.14,0.217,0.113
	c0.034,0.38,0.247,0.785,0.576,0.947c0.427,0.199,0.732,0.633,0.732,1.079c0,0.445,0,0.866,0,1.372c0,0.669-0.447,0.89-0.954,0.89
	c-0.51,0-1.222-0.221-1.222-1.683C85.559,22.606,85.828,21.637,86.209,21.159L86.209,21.159z"/>
<path fill-rule="evenodd" clip-rule="evenodd" fill="#231F20" d="M84.199,20.546c0.332,0.185,0.94,0.412,1.533,0.185
	c0.207-0.08,0.343,0.006,0.156,0.199c-0.189,0.19-0.746,1.083-0.746,2.422c0,0.292,0.014,0.467,0.002,0.558
	c-0.019,0.195-0.15,0.117-0.264,0.062c-0.263-0.125-1.005-0.954-1.005-2.479C83.876,20.222,84.199,20.546,84.199,20.546
	L84.199,20.546z"/>
<path fill-rule="evenodd" clip-rule="evenodd" fill="#231F20" d="M89.746,21.159c-0.124-0.155-0.204-0.14-0.224,0.113
	c-0.029,0.38-0.237,0.785-0.571,0.947c-0.426,0.199-0.729,0.633-0.729,1.079c0,0.445,0,0.866,0,1.372c0,0.669,0.44,0.89,0.952,0.89
	c0.507,0,1.222-0.221,1.222-1.683C90.396,22.606,90.129,21.637,89.746,21.159L89.746,21.159z"/>
<path fill-rule="evenodd" clip-rule="evenodd" fill="#231F20" d="M87.974,21.429h1.109c0.092,0,0.173-0.093,0.173-0.172v-1.621
	c0-0.079,0.075-0.179,0.173-0.179h2.115c0.079,0,0.093-0.109,0.074-0.169c-0.535-1.471-1.984-2.496-3.645-2.496
	c-1.653,0-3.102,1.025-3.633,2.496c-0.021,0.06-0.008,0.169,0.07,0.169h2.115c0.093,0,0.176,0.1,0.176,0.179v1.621
	c0,0.079,0.076,0.172,0.17,0.172H87.974L87.974,21.429z"/>
<path fill-rule="evenodd" clip-rule="evenodd" fill="#231F20" d="M91.738,20.546c-0.33,0.185-0.936,0.412-1.528,0.185
	c-0.212-0.08-0.346,0.006-0.154,0.199c0.188,0.19,0.745,1.083,0.745,2.422c0,0.292-0.012,0.467,0,0.558
	c0.014,0.195,0.15,0.117,0.259,0.062c0.263-0.125,1.006-0.954,1.006-2.479C92.065,20.222,91.738,20.546,91.738,20.546L91.738,20.546
	z"/>
<path fill-rule="evenodd" clip-rule="evenodd" fill="#231F20" d="M63.499,36.988c0.67,0.38,1.352,0.5,1.512,0.523
	c0.154,0.019,0.995,0.078,0.995-0.524c0-0.478-0.644-0.53-0.995-0.53C64.849,36.458,64.186,36.595,63.499,36.988L63.499,36.988z"/>
<path fill-rule="evenodd" clip-rule="evenodd" fill="#231F20" d="M90.938,56.694c0,0,0,1.526,0,2.184
	c0,1.362-0.185,2.706-1.015,2.706c-1.844,0-2.33,0.422-2.33,0.422c-0.412,0-0.487-0.693-0.487-1.111c0-0.416,0-5.833,0-6.181
	c0-0.346,0.211-0.624,0.35-0.693c0.138-0.071,0.138-0.071,0.138-0.071v-1.495c0,0,2.786,0.607,4.455-1.481
	c0.09-0.103,0.219,0,0.219,0.219c0,0.215-0.085,1.248,0.798,1.403c0,0-0.903,0.346-1.404,0.99
	C91.273,54.104,90.938,55.006,90.938,56.694L90.938,56.694z"/>
<path fill-rule="evenodd" clip-rule="evenodd" fill="#FFFFFF" d="M89.161,54.479c0,0.037-0.029,0.071-0.064,0.071h-0.874
	c-0.039,0-0.065-0.035-0.065-0.071v-0.907c0-0.037,0.026-0.064,0.065-0.064h0.874c0.035,0,0.064,0.028,0.064,0.064V54.479
	L89.161,54.479z"/>
<path fill-rule="evenodd" clip-rule="evenodd" fill="#FFFFFF" d="M89.161,56.578c0,0.039-0.029,0.066-0.064,0.066h-0.874
	c-0.039,0-0.065-0.027-0.065-0.066v-0.909c0-0.038,0.026-0.064,0.065-0.064h0.874c0.035,0,0.064,0.027,0.064,0.064V56.578
	L89.161,56.578z"/>
<path fill-rule="evenodd" clip-rule="evenodd" fill="#FFFFFF" d="M89.161,58.578c0,0.036-0.029,0.067-0.064,0.067h-0.874
	c-0.039,0-0.065-0.031-0.065-0.067v-0.91c0-0.038,0.026-0.067,0.065-0.067h0.874c0.035,0,0.064,0.029,0.064,0.067V58.578
	L89.161,58.578z"/>
<path fill-rule="evenodd" clip-rule="evenodd" fill="#FFFFFF" d="M89.161,60.726c0,0.034-0.029,0.065-0.064,0.065h-0.874
	c-0.039,0-0.065-0.031-0.065-0.065v-0.914c0-0.035,0.026-0.065,0.065-0.065h0.874c0.035,0,0.064,0.031,0.064,0.065V60.726
	L89.161,60.726z"/>
<path fill-rule="evenodd" clip-rule="evenodd" fill="#231F20" d="M97.954,78.369c0.604,0.229,1.222,0.236,1.807,0.052
	c0.593-0.188,0.992-0.109,1.143,0.122c0.146,0.219,0.085,0.884-0.035,1.191c-0.16,0.397-0.192,0.589-0.426,0.911
	c-0.122,0.173-0.353,0.169-0.578,0.017c-0.3-0.205-0.484-0.288-0.703-0.364c-0.221-0.073-0.525-0.194-0.646-0.511
	c-0.119-0.317-0.426-0.986-0.618-1.208C97.7,78.357,97.753,78.296,97.954,78.369L97.954,78.369z"/>
<path fill-rule="evenodd" clip-rule="evenodd" fill="#231F20" d="M75.984,61.898c0.261,0.65,0.855,1.092,1.688,1.301
	c0.187,0.046,1.092-0.073,1.313-0.235c0,0-1.451,1.382-1.558,5.278c-0.016,0.593-0.031,0.97-0.012,1.525
	c0.007,0.228,0.093,1.037-0.783,0.715c-0.879-0.324-2.344-0.767-3.316-0.784c-1.766-0.031-3.291,0.642-3.735,0.776
	c-0.564,0.171-0.797,0.073-0.912-0.059c-0.308-0.358,1.154-1.47,4.124-1.616c1.015-0.051,2.035-0.067,2.393-0.098
	c0.361-0.034,1.056-0.228,1.394-0.802c0.261-0.468,0.261-1.488,0.05-2.516C76.451,64.584,75.987,62.843,75.984,61.898L75.984,61.898
	z"/>
<path fill-rule="evenodd" clip-rule="evenodd" fill="#231F20" d="M45.782,37.974c0,0.253,1.262,0.711,3.412,0.549
	c0.544-0.044,1.429,0,1.767,0.124c0,0-0.381-1.012-0.213-1.937c0,0-1.103,0.425-1.768,0.548
	C48.053,37.426,45.782,37.597,45.782,37.974L45.782,37.974z"/>
<path fill-rule="evenodd" clip-rule="evenodd" fill="#231F20" d="M74.36,37.974c0,0.253-1.261,0.711-3.409,0.549
	c-0.545-0.044-1.434,0-1.77,0.124c0,0,0.383-1.012,0.21-1.937c0,0,1.106,0.425,1.772,0.548C72.086,37.426,74.36,37.597,74.36,37.974
	L74.36,37.974z"/>
</svg>
